<?xml version="1.0" encoding="UTF-8" standalone="no"?>
<svg
   xmlns:dc="http://purl.org/dc/elements/1.1/"
   xmlns:cc="http://creativecommons.org/ns#"
   xmlns:rdf="http://www.w3.org/1999/02/22-rdf-syntax-ns#"
   xmlns:svg="http://www.w3.org/2000/svg"
   xmlns="http://www.w3.org/2000/svg"
   xmlns:sodipodi="http://sodipodi.sourceforge.net/DTD/sodipodi-0.dtd"
   xmlns:inkscape="http://www.inkscape.org/namespaces/inkscape"
   width="500"
   height="500"
   viewBox="0 0 132.29166 132.29167"
   version="1.1"
   id="svg27"
   inkscape:version="1.0.2 (e86c8708, 2021-01-15)"
   sodipodi:docname="feathers-cloud-logo-v4-white.svg">
  <defs
     id="defs21">
    <inkscape:path-effect
       effect="fillet_chamfer"
       id="path-effect170"
       is_visible="true"
       lpeversion="1"
       satellites_param="F,0,0,1,0,4.4979167,0,1 @ F,0,0,1,0,4.4979167,0,1 @ F,0,0,1,0,4.4979167,0,1 @ F,0,0,1,0,4.4979167,0,1 @ F,0,0,1,0,4.4979167,0,1 @ F,0,0,1,0,4.4979167,0,1 @ F,0,0,1,0,4.4979167,0,1 @ F,0,0,1,0,4.4979167,0,1 @ F,0,0,1,0,4.4979167,0,1 @ F,0,0,1,0,4.4979167,0,1 @ F,0,0,1,0,4.4979167,0,1 @ F,0,0,1,0,4.4979167,0,1 @ F,0,0,1,0,4.4979167,0,1 @ F,0,0,1,0,4.4979167,0,1 @ F,0,0,1,0,4.4979167,0,1 @ F,0,0,1,0,4.4979167,0,1 @ F,0,0,1,0,4.4979167,0,1 @ F,0,0,1,0,4.4979167,0,1 @ F,0,0,1,0,4.4979167,0,1 @ F,0,0,1,0,4.4979167,0,1 @ F,0,0,1,0,4.4979167,0,1 @ F,0,0,1,0,4.4979167,0,1 @ F,0,0,1,0,4.4979167,0,1 @ F,0,0,1,0,4.4979167,0,1 @ F,0,0,1,0,4.4979167,0,1 @ F,0,0,1,0,4.4979167,0,1 @ F,0,0,1,0,4.4979167,0,1 @ F,0,0,1,0,4.4979167,0,1 @ F,0,0,1,0,4.4979167,0,1 @ F,0,0,1,0,4.4979167,0,1 @ F,0,0,1,0,4.4979167,0,1"
       unit="px"
       method="auto"
       mode="F"
       radius="17"
       chamfer_steps="1"
       flexible="false"
       use_knot_distance="true"
       apply_no_radius="true"
       apply_with_radius="true"
       only_selected="false"
       hide_knots="false" />
    <inkscape:path-effect
       effect="fillet_chamfer"
       id="path-effect55"
       is_visible="true"
       lpeversion="1"
       satellites_param="F,0,0,1,0,17.4625,0,1 @ F,0,0,1,0,17.4625,0,1 @ F,0,0,1,0,17.4625,0,1 @ F,0,0,1,0,17.4625,0,1"
       unit="px"
       method="auto"
       mode="F"
       radius="66"
       chamfer_steps="1"
       flexible="false"
       use_knot_distance="true"
       apply_no_radius="true"
       apply_with_radius="true"
       only_selected="false"
       hide_knots="false" />
    <style
       id="style131">.cls-1{fill:none;}.cls-2{clip-path:url(#clip-path);}.cls-3{fill:#231916;fill-rule:evenodd;}</style>
    <clipPath
       id="clip-path">
      <rect
         class="cls-1"
         width="595.28"
         height="595.28"
         id="rect133" />
    </clipPath>
    <style
       id="style154">.cls-1{fill:#232020;}</style>
  </defs>
  <sodipodi:namedview
     id="base"
     pagecolor="#ffffff"
     bordercolor="#666666"
     borderopacity="1.0"
     inkscape:pageopacity="0.0"
     inkscape:pageshadow="2"
     inkscape:zoom="1.439008"
     inkscape:cx="406.05245"
     inkscape:cy="300.63709"
     inkscape:document-units="mm"
     inkscape:current-layer="layer1"
     inkscape:document-rotation="0"
     showgrid="false"
     units="px"
     inkscape:pagecheckerboard="true"
     inkscape:window-width="1280"
     inkscape:window-height="747"
     inkscape:window-x="0"
     inkscape:window-y="25"
     inkscape:window-maximized="1"
     inkscape:snap-global="true" />
  <metadata
     id="metadata24">
    <rdf:RDF>
      <cc:Work
         rdf:about="">
        <dc:format>image/svg+xml</dc:format>
        <dc:type
           rdf:resource="http://purl.org/dc/dcmitype/StillImage" />
        <dc:title />
      </cc:Work>
    </rdf:RDF>
  </metadata>
  <g
     inkscape:label="Layer 1"
     inkscape:groupmode="layer"
     id="layer1">
    <path
       id="path160"
       style="fill:#ffffff;stroke-width:0.440423"
       d="m 52.117558,36.430333 c -0.430691,0.0024 -0.861472,0.01274 -1.18959,0.03049 -15.449915,0.836247 -27.8191,16.205311 -28.324886,35.257279 -0.01744,0.657011 -0.01602,1.240311 -0.01602,1.302245 -1.521793,-0.113395 -2.328789,-0.11733 -2.983797,-0.06511 -9.137768,0.728467 -16.4283119,9.794563 -16.9023272,21.076748 -0.027588,0.65663 0.5085606,1.189593 1.1658203,1.189593 H 50.192611 c 0.657288,1.9e-5 1.190129,-0.532823 1.190109,-1.19011 -0.07235,-0.584931 -0.605179,-1.00046 -1.190109,-0.928108 H 6.0841939 c -0.6572596,0 -1.1529928,-0.531786 -1.0676353,-1.183391 0.045075,-0.344099 0.098021,-0.687784 0.1570964,-1.025261 0.1133173,-0.647345 0.3443748,-1.688591 0.5183148,-2.322337 1.3071078,-4.76241 4.2508884,-9.349005 8.6330642,-11.804449 0.573224,-0.321191 1.53862,-0.779182 2.156975,-1.000972 2.24227,-0.804251 4.688866,-0.868648 7.046081,-0.5271 0.650384,0.09424 1.17452,-0.329245 1.176156,-0.986502 0.0013,-0.512326 -0.0034,-1.460592 0.0098,-2.117701 0.12621,-6.297694 1.614858,-12.58471 4.572332,-18.165815 0.307734,-0.580734 0.840684,-1.503945 1.18804,-2.06189 1.459007,-2.343547 3.138561,-4.485473 5.128887,-6.369121 0.477332,-0.45175 1.28194,-1.151504 1.796272,-1.560627 3.631559,-2.888723 8.042952,-4.85689 12.577527,-5.322673 0.653727,-0.06715 1.661033,-0.114771 2.246892,-0.115755 5.673693,0.275117 10.034007,1.923301 13.683919,4.537707 0.534278,0.382702 1.372658,1.041633 1.872236,1.468644 2.185432,1.86798 4.109556,4.112747 5.657535,6.436299 0.36439,0.546958 0.922007,1.455471 1.246952,2.026751 2.474519,4.350396 4.039233,9.193318 4.719609,14.14849 0.0894,0.651129 0.10337,1.753569 0.407209,2.327506 0.165346,0.31233 0.400852,0.584229 0.686782,0.77153 0.536924,0.351718 1.64034,0.07223 2.276864,-0.09095 3.222966,-0.826235 6.688473,-0.654616 9.813869,0.48886 0.617104,0.225777 1.59027,0.663779 2.171444,0.970481 4.233743,2.234269 7.441785,6.070256 9.605095,10.310482 0.29868,0.58543 0.9621,0.772044 1.50637,0.403593 0.53802,-0.36422 1.41147,-0.96596 1.98334,-1.289325 3.07305,-1.737649 6.89496,-2.068738 10.22418,-0.899687 0.61987,0.217665 1.58528,0.674264 2.15388,1.003557 3.97933,2.304534 6.70262,6.412986 7.98504,10.798823 0.18443,0.630764 -0.23054,1.150834 -0.8878,1.150834 H 93.07886 c -0.65728,-1.6e-5 -1.190122,0.532824 -1.190103,1.190109 0.07235,0.584928 0.605173,1.000456 1.190103,0.928108 h 36.80602 c 0.65726,0 1.12342,-0.528706 1.00769,-1.175639 -1.65252,-9.237919 -8.07314,-16.031239 -15.72462,-16.675983 -0.65474,-0.05517 -1.72231,-0.05612 -2.37711,-0.0016 -2.11763,0.176181 -4.19087,0.832551 -6.11487,1.936316 -0.56998,0.326983 -1.25995,0.158854 -1.59474,-0.406693 C 99.987416,70.293258 91.324437,66.047902 82.825761,67.976728 82.184909,68.122175 81.620936,67.746263 81.535401,67.094612 79.277963,49.896381 67.434375,37.057774 53.307152,36.447388 c -0.328293,-0.01418 -0.758902,-0.01944 -1.189594,-0.01705 z"
       sodipodi:nodetypes="scsccsscccsssssssccssscscssssssssssssssssscccscscsssssss" />
    <path
       id="path140"
       style="fill:#ffffff;fill-rule:evenodd;stroke-width:0.26409"
       d="M 46.271909,54.390961 C 61.294609,68.938983 72.354734,87.237058 79.717288,106.73023 70.739659,88.011641 59.298416,70.533116 46.271909,54.390961 Z m 41.086522,68.653979 c -1.040408,-5.48638 -4.280952,-10.84021 -2.818964,-16.57235 0.814102,-2.12462 1.862037,-5.27109 -0.98677,-4.08439 -2.429704,-4.83204 -1.01258,-10.511977 -2.988974,-15.500204 -1.432308,-4.443147 -3.687644,-8.566117 -6.124402,-12.529002 -0.668965,1.340339 -1.33793,2.680678 -2.006895,4.021017 0.555567,-6.52955 -2.494675,-12.980416 -7.417068,-17.193841 -0.251494,1.987728 -0.50298,3.975447 -0.754468,5.963166 -3.369464,-9.009812 -10.402436,-16.90365 -19.717654,-19.887869 -2.339562,-0.355396 -8.091637,-3.605131 -7.973531,0.538171 2.170449,7.28081 6.574508,14.227039 13.355501,17.981438 -2.018847,-0.219026 -4.037708,-0.437974 -6.056561,-0.65696 1.307423,6.769193 5.256561,13.499461 11.871261,16.200315 -1.124854,0.810876 -3.451453,1.369907 -1.592705,2.912211 1.264437,3.344505 6.797499,4.188559 8.48211,4.142642 -0.959203,0.661914 -1.918406,1.323828 -2.877609,1.985732 2.358152,5.674786 7.451758,9.722154 12.984494,12.090794 -0.946227,0.86811 -1.892452,1.73622 -2.838678,2.60432 2.41514,2.9532 5.751657,4.89639 9.242143,6.30336 4.636594,3.23406 5.677676,9.24175 7.52556,14.21028 1.862318,4.7664 0.914914,-1.13128 0.69321,-2.52883 z" />
    <text
       xml:space="preserve"
       style="font-style:normal;font-variant:normal;font-weight:900;font-stretch:normal;font-size:15.87500000000000000px;line-height:1.25;font-family:Avenir;-inkscape-font-specification:'Avenir Heavy';fill:#ffffff;fill-opacity:1;stroke:none;stroke-width:0.43769;"
       x="5.0648661"
       y="114.73217"
       id="text248"><tspan
         sodipodi:role="line"
         id="tspan246"
         x="5.0648661"
         y="114.73217"
         style="font-style:normal;font-variant:normal;font-weight:300;font-stretch:normal;font-size:15.87500000000000000px;font-family:Avenir;-inkscape-font-specification:'Avenir Light';fill:#ffffff;stroke-width:0.43769;">Feathers</tspan></text>
    <text
       xml:space="preserve"
       style="font-style:normal;font-variant:normal;font-weight:normal;font-stretch:normal;font-size:14.11110000000000042px;line-height:1.25;font-family:Avenir;-inkscape-font-specification:Avenir;fill:#ff2ad4;fill-opacity:1;stroke:none;stroke-width:0.264583;"
       x="89.113548"
       y="114.66864"
       id="text252"><tspan
         sodipodi:role="line"
         id="tspan250"
         x="89.113548"
         y="114.66864"
         style="font-style:normal;font-variant:normal;font-weight:300;font-stretch:normal;font-size:14.11110000000000042px;font-family:Avenir;-inkscape-font-specification:'Avenir Light';fill:#ff2ad4;stroke-width:0.264583;fill-opacity:1;">Cloud</tspan></text>
  </g>
</svg>
