<svg xmlns="http://www.w3.org/2000/svg" xmlns:xlink="http://www.w3.org/1999/xlink" viewBox="0 0 369.32 316.48"><defs><style>.cls-1{fill:#fff;}.cls-2{fill:none;stroke:#ec5f62;stroke-miterlimit:10;stroke-width:2.74px;}.cls-3{clip-path:url(#clip-path);}.cls-4{fill:#f59e52;}.cls-5{fill:#fed06c;}.cls-6{fill:#af5832;opacity:0.51;}</style><clipPath id="clip-path" transform="translate(0 39.16)"><circle class="cls-1" cx="184.49" cy="113.25" r="110.39"/></clipPath></defs><g id="Layer_2" data-name="Layer 2"><g id="Layer_1-2" data-name="Layer 1"><path class="cls-2" d="M118.38,29.53C57.52,3.1,11.29-6.46,2.76,8.33-9.6,29.73,61.75,94.05,162.12,152s191.74,87.57,204.1,66.17c8.5-14.72-22.6-49.74-75.49-89" transform="translate(0 39.16)"/><circle class="cls-1" cx="184.49" cy="152.41" r="110.39"/><g class="cls-3"><path class="cls-4" d="M33.43,165.86c116.32-54.39,112.8-163.71,189-205L267.7.61C186.94,23.89,186.94,152.32,57.91,202.37Z" transform="translate(0 39.16)"/><path class="cls-5" d="M102.62,236.21c116.31-54.4,112.8-163.71,189-205L336.89,71c-80.76,23.27-80.76,151.7-209.79,201.76Z" transform="translate(0 39.16)"/><circle class="cls-6" cx="125.16" cy="201.27" r="115.21"/></g><path class="cls-2" d="M96.63,20.42C46.9,1.1,10.57-4.61,3.1,8.33-9.25,29.73,62.1,94.05,162.46,152s191.75,87.57,204.1,66.17c7.52-13-16-41.95-58.12-75.65" transform="translate(0 39.16)"/></g></g></svg>