<svg id="Layer_1" data-name="Layer 1" xmlns="http://www.w3.org/2000/svg" xmlns:xlink="http://www.w3.org/1999/xlink" viewBox="0 0 1916 2378.4"><defs><style>.cls-1{fill:none;}.cls-2{clip-path:url(#clip-path);}.cls-3{fill:#1c1835;opacity:0.25;}.cls-4{fill:#fff;opacity:0.14;}.cls-5{fill:url(#linear-gradient);}.cls-6{fill:url(#linear-gradient-2);}</style><clipPath id="clip-path"><rect class="cls-1" x="1960.36" y="760.03" width="1915.16" height="1244.44"/></clipPath><linearGradient id="linear-gradient" x1="960.19" y1="6.56" x2="955.85" y2="1609.15" gradientUnits="userSpaceOnUse"><stop offset="0" stop-color="#040407"/><stop offset="0.56" stop-color="#281c43"/></linearGradient><linearGradient id="linear-gradient-2" x1="957.36" y1="1662.32" x2="958.94" y2="2508.77" gradientUnits="userSpaceOnUse"><stop offset="0" stop-color="#281c43"/><stop offset="1" stop-color="#ec5f62"/></linearGradient></defs><g class="cls-2"><path class="cls-3" d="M2830.78,1609.76l-900.23,125.89L1897.31,1498c6.08-2.36,2.11-.77,8.84-1.72a85.66,85.66,0,0,1,74.92,26.78c1.43,1.55,2.81,3.16,4.13,4.81l-.27,15.72a52.16,52.16,0,0,1,72.22-55.14l-1.94,27.45a66.11,66.11,0,0,1,108.43-59.41l-13.21,17.11a102.78,102.78,0,0,1,185.6,22.82l-2.45,3.15c9.88-14.09,27.1-20.84,45.49-23.41,26.83-3.75,57.95,14.54,66.51,40.3l-2.4-8a72.17,72.17,0,0,1,124.43,26.26l.69-.51a52.11,52.11,0,0,1,80.86,32.25l-4.09,2.37a35.7,35.7,0,0,1,15-5.7c13.07-1.83,24.18,2.09,31.81,11.76l-2.29-.85a28,28,0,0,1,41.1,12.65l-10.06,2.47a28,28,0,0,1,43,1.65l-14.09-7a28,28,0,0,1,41.1,12.65l-1.94,3.66a22,22,0,0,1,42.19,5.36"/><path class="cls-4" d="M1992.79,20.58A19.74,19.74,0,0,0,2012.53.84h0a19.74,19.74,0,0,0-19.74-19.74H1373.22a39.47,39.47,0,0,1-39.48-39.48h0a39.47,39.47,0,0,1,39.48-39.47H1667.4a39.48,39.48,0,0,0,39.48-39.48h0a39.48,39.48,0,0,0-39.48-39.48H1504.7A19.74,19.74,0,0,1,1485-196.55h0a19.73,19.73,0,0,1,19.74-19.73h225a39.48,39.48,0,0,0,39.48-39.48h0a39.48,39.48,0,0,0-39.48-39.48H1667.4A19.73,19.73,0,0,1,1647.67-315h0a19.73,19.73,0,0,1,19.73-19.74h318.31A19.74,19.74,0,0,1,2005.45-315h0a19.74,19.74,0,0,1-19.74,19.74H1891.4a39.49,39.49,0,0,0-39.48,39.48h0a39.49,39.49,0,0,0,39.48,39.48h374.89A19.73,19.73,0,0,1,2286-196.55h0a19.73,19.73,0,0,1-19.74,19.74H1840.83a39.49,39.49,0,0,0-39.48,39.48h0a39.49,39.49,0,0,0,39.48,39.48H2165.2a39.47,39.47,0,0,1,39.48,39.47h0A39.47,39.47,0,0,1,2165.2-18.9h-82.46A19.73,19.73,0,0,0,2063,.84h0a19.73,19.73,0,0,0,19.73,19.74h237.48c12.55,0,22.72,8.84,22.72,19.74h0c0,10.9-10.17,19.74-22.72,19.74H1922.41a19.73,19.73,0,0,0-19.73,19.73h0a19.73,19.73,0,0,0,19.73,19.74h749.82A19.73,19.73,0,0,1,2692,119.27h0A19.73,19.73,0,0,1,2672.23,139H2410.64a19.73,19.73,0,0,0-19.73,19.74h0a19.73,19.73,0,0,0,19.73,19.74h65.12a19.74,19.74,0,0,1,19.74,19.74h0A19.73,19.73,0,0,1,2475.76,218H2301.07a19.73,19.73,0,0,1-19.74-19.73h0a19.74,19.74,0,0,1,19.74-19.74h41.87a19.74,19.74,0,0,0,19.74-19.74h0A19.74,19.74,0,0,0,2342.94,139H1950.48a19.74,19.74,0,0,0-19.74,19.74h0a19.74,19.74,0,0,0,19.74,19.74h77.84a19.73,19.73,0,0,1,19.74,19.74h0A19.73,19.73,0,0,1,2028.32,218H1712.23a19.73,19.73,0,0,1-19.74-19.73h0a19.74,19.74,0,0,1,19.74-19.74h153.39a19.74,19.74,0,0,0,19.74-19.74h0A19.74,19.74,0,0,0,1865.62,139H1592.69A19.74,19.74,0,0,1,1573,119.27h0a19.74,19.74,0,0,1,19.74-19.74H1833a19.74,19.74,0,0,0,19.74-19.74h0A19.73,19.73,0,0,0,1833,60.06H1468.39c-12.55,0-22.72-8.84-22.72-19.74h0c0-10.9,10.17-19.74,22.72-19.74Z"/></g><rect class="cls-5" width="1916" height="1630.54"/><rect class="cls-6" y="1630.54" width="1916" height="747.86"/></svg>