<?xml version="1.0" encoding="utf-8"?>
<!-- Generator: Adobe Illustrator 26.3.1, SVG Export Plug-In . SVG Version: 6.00 Build 0)  -->
<svg version="1.1" id="Layer_1" xmlns="http://www.w3.org/2000/svg" xmlns:xlink="http://www.w3.org/1999/xlink" x="0px" y="0px"
	 viewBox="0 0 1916 1283.8" style="enable-background:new 0 0 1916 1283.8;" xml:space="preserve">
<style type="text/css">
	.st0{clip-path:url(#SVGID_00000152970542975219448330000009341631612052511134_);}
	.st1{opacity:0.19;}
	.st2{opacity:0.21;fill:#040407;enable-background:new    ;}
	.st3{opacity:0.49;}
	.st4{opacity:0.44;}
	.st5{fill:url(#SVGID_00000081629115362879646730000003644303711452736167_);}
	.st6{clip-path:url(#SVGID_00000002361433978166656920000000022555522924984970_);}
	.st7{fill:url(#SVGID_00000041987612482140456700000016251874213310230962_);}
	.st8{fill:url(#SVGID_00000067942381447751688420000009423871460280968102_);}
	.st9{fill:url(#SVGID_00000136394110076220787330000013918252573929226675_);}
	.st10{fill:url(#SVGID_00000084529477932553174490000013101256483718475430_);}
	.st11{fill:#1D1A38;}
	.st12{opacity:0.14;fill:#FFFFFF;enable-background:new    ;}
	.st13{opacity:0.5;fill:#514696;enable-background:new    ;}
	.st14{opacity:0.57;}
	.st15{fill:#F59D1A;}
	.st16{fill:#4E4C9B;}
	.st17{fill:#F59E52;}
	.st18{fill:#E60E56;}
	.st19{fill:#FFFFFF;stroke:#000000;stroke-miterlimit:10;}
	.st20{opacity:0.69;}
	.st21{opacity:0.5;}
	.st22{fill:#EC5F62;}
	.st23{fill:#FEEEB2;}
	.st24{fill:#FFFEFE;}
	.st25{fill:url(#SVGID_00000101061563919700593310000016285254542151046784_);}
	.st26{clip-path:url(#SVGID_00000076591611014294779880000007722958656684676278_);}
	.st27{fill:#EA591E;}
	.st28{fill:none;stroke:#FFFFFF;stroke-width:1.29;stroke-miterlimit:10;}
</style>
<g transform="translate(1154 -33)">
	
		<image style="overflow:visible;enable-background:new    ;" width="77" height="78" id="image-3" xlink:href="679C7435.png"  transform="matrix(1 0 0 1 1154 -33)">
	</image>
</g>
<image style="overflow:visible;enable-background:new    ;" width="77" height="77" xlink:href="679C7437.png"  transform="matrix(1 0 0 1 1114 -22)">
</image>
<g>
	<defs>
		<rect id="SVGID_1_" y="-12.4" width="1915.2" height="1294.3"/>
	</defs>
	<clipPath id="SVGID_00000106125344447761785150000018336131279580618369_">
		<use xlink:href="#SVGID_1_"  style="overflow:visible;"/>
	</clipPath>
	<g style="clip-path:url(#SVGID_00000106125344447761785150000018336131279580618369_);">
		<g class="st1">
			
				<image style="overflow:visible;enable-background:new    ;" width="1277" height="838" xlink:href="679C7432.png"  transform="matrix(1 0 0 1 704 75)">
			</image>
		</g>
		<g class="st1">
			
				<image style="overflow:visible;enable-background:new    ;" width="1277" height="838" xlink:href="679C7433.png"  transform="matrix(1 0 0 1 -7 147)">
			</image>
		</g>
		
			<image style="overflow:visible;enable-background:new    ;" width="335" height="449" xlink:href="679C743D.png"  transform="matrix(1 0 0 1 1581 256)">
		</image>
		<path class="st2" d="M575.5,657.2c-9,49.1-56.1,81.7-105.2,72.7c-3.7-0.7-7.4-1.6-11-2.7l0,0c-1.6-0.5-3.2-1.1-4.8-1.7l0,0
			c-15.7-4.1-32,3.7-38.5,18.5c-0.3,0.6-0.5,1.2-0.7,1.8l-0.2,0.1c-11.5,48.6-60.2,78.6-108.8,67.1c-14.8-3.5-28.5-10.7-39.8-20.9
			l0,0c-13.9-11.3-34.3-9.5-46.1,4l-0.1-0.1c-33,37.4-90.1,41-127.5,8s-41-90.1-8-127.5c8.1-9.1,17.9-16.6,28.9-21.8l-0.2-0.2
			c64.8-24.2,104.9-89.4,97.3-158.2L575.5,657.2z"/>
		
			<image style="overflow:visible;opacity:0.57;enable-background:new    ;" width="455" height="645" xlink:href="679C743F.png"  transform="matrix(1 0 0 1 168 170)">
		</image>
		
			<image style="overflow:visible;enable-background:new    ;" width="278" height="272" xlink:href="679C7430.png"  transform="matrix(1 0 0 1 1206 246)">
		</image>
		
			<image style="overflow:visible;enable-background:new    ;" width="233" height="228" xlink:href="679C7431.png"  transform="matrix(1 0 0 1 1403 518)">
		</image>
		
			<image style="overflow:visible;enable-background:new    ;" width="197" height="193" xlink:href="679C7436.png"  transform="matrix(1 0 0 1 726 836)">
		</image>
		
			<image style="overflow:visible;opacity:0.95;enable-background:new    ;" width="607" height="588" xlink:href="F99CCBBE.png"  transform="matrix(1 0 0 1 652 334)">
		</image>
		<g class="st3">
			
				<image style="overflow:visible;enable-background:new    ;" width="1795" height="827" xlink:href="F99CCBB9.png"  transform="matrix(1 0 0 1 163 189)">
			</image>
		</g>
		<g class="st4">
			
				<linearGradient id="SVGID_00000085952708423998877430000014489627438002292905_" gradientUnits="userSpaceOnUse" x1="-3.78" y1="768.52" x2="1717.3396" y2="768.52" gradientTransform="matrix(1 0 0 -1 0 1284)">
				<stop  offset="0" style="stop-color:#040407"/>
				<stop  offset="0.56" style="stop-color:#281C43"/>
			</linearGradient>
			<path style="fill:url(#SVGID_00000085952708423998877430000014489627438002292905_);" d="M-3.8,695.8c0-45.7,74.8-105,120.7-105
				s92.1,37.4,92.1,83c0,16.1-6,30.1-15.7,41.4c-21.3,19.5-59.3,61.6-43.4,88.2c59.1,99.3,126.5-17.5,213.2-10.4
				c58.7,4.8,256,64,302.9-79.1h-0.1c19.1-51.8,76.6-78.3,128.3-59.2c5.2,1.9,10.2,4.2,15,7c34.9,20,53.7,59.5,48.3,99.2l-2.2,16
				c-5.5,40.9,13.8,81.5,49.7,102.1c15.5,8.9,33.2,13.6,51.1,13.5c56.7,0,102.6-45.8,102.6-102.2c0-54.3,61.4-90.8,113-87.9
				c53.2,3,92.7,16.7,109.5,64.4c0,0-0.1-0.5,0.3,1.8c8.2,50.1,46.7,90.3,98.5,90.3c54.6,0,98.9-44.1,98.9-98.5
				c0-69.8-45.7-78.2-46.2-117.1c0-21.6,17.6-39.1,39.2-39.1h0c22.6,1.1,47.2,2.3,63.9,2.9c26.7,0,48.4-21.7,48.4-48.4
				s-21.7-48.4-48.4-48.4v-0.1c-57.8,0-104.8-46.4-105.4-103.9c-0.6-58,46.9-105.9,105.2-106c10.3,0,20.5,1.4,30.3,4.4
				c49.8,13.3,69.2,48.7,105.2,49.9c25.4,0.1,46.1-20.5,46.1-45.9c0-5.6-1-11.1-2.9-16.3c-8.3-21.9-32.7-33-55.1-26l-16.5,5.2
				c-4.2,1-8.5,1.5-12.8,1.5c-30,0-56.1-51.2-64.2-70.3c-22.1-39.9-64.2-64.7-109.9-64.6c-69.2,0-125.3,55.9-125.3,124.8
				c0,26.6,8.5,52.6,24.4,74l-0.7,0.5c16.3,21.3,12.3,51.7-9,68.1c-21,16.1-50.9,12.4-67.4-8.2l-0.3,0.3
				c-28.6-33.6-70.6-52.9-114.7-52.8c-83.1,0-150.5,67.1-150.5,149.9l-0.3-5.7c0,64.7-52.6,117-117.5,117s-117.5-52.4-117.5-117V474
				c0-52.6-42.9-95.3-95.7-95.3l-4.8,0.2c-2.8,0.1-5.5,0.3-8.2,0.5c-3.5,0.3-7,0.5-10.6,0.5c-46.5,0-86-29.8-99.6-71.1l0,0
				c-14.3-31.5-51.6-45.5-83.1-31.1s-45.5,51.6-31.1,83.1c9.3,20.4,28.7,34.3,51,36.5c44,5.7,77,43.1,77,87.5
				c0,19.1-6.2,37.7-17.8,52.9l9.7-16.2C523.7,600.2,475,632.1,403.9,661l0,0c-14.3,6.4-29.9,9.7-45.6,9.6
				c-61.7,0-111.7-49.8-111.7-111.2c0-24,8.6-45.7,21.6-63.9l0,0c14.7-21.9,8.8-51.5-13-66.2c-7.9-5.3-17.3-8.1-26.8-8.1
				c-6.6-0.1-13.4,1.5-20.3,4.5c-47.2,18.3-63.3,84.3-88.3,101.7l0,0l-0.3,0.2c-15.4,11.9-36.5,13.3-53.3,3.6
				c-24.8-14.2-68.6-43.4-70-75.7"/>
			<g>
				<defs>
					<path id="SVGID_00000052805742028042712470000006007724881682263737_" d="M-3.8,695.8c0-45.7,74.8-105,120.7-105
						s92.1,37.4,92.1,83c0,16.1-6,30.1-15.7,41.4c-21.3,19.5-59.3,61.6-43.4,88.2c59.1,99.3,126.5-17.5,213.2-10.4
						c58.7,4.8,256,64,302.9-79.1h-0.1c19.1-51.8,76.6-78.3,128.3-59.2c5.2,1.9,10.2,4.2,15,7c34.9,20,53.7,59.5,48.3,99.2l-2.2,16
						c-5.5,40.9,13.8,81.5,49.7,102.1c15.5,8.9,33.2,13.6,51.1,13.5c56.7,0,102.6-45.8,102.6-102.2c0-54.3,61.4-90.8,113-87.9
						c53.2,3,92.7,16.7,109.5,64.4c0,0-0.1-0.5,0.3,1.8c8.2,50.1,46.7,90.3,98.5,90.3c54.6,0,98.9-44.1,98.9-98.5
						c0-69.8-45.7-78.2-46.2-117.1c0-21.6,17.6-39.1,39.2-39.1h0c22.6,1.1,47.2,2.3,63.9,2.9c26.7,0,48.4-21.7,48.4-48.4
						s-21.7-48.4-48.4-48.4v-0.1c-57.8,0-104.8-46.4-105.4-103.9c-0.6-58,46.9-105.9,105.2-106c10.3,0,20.5,1.4,30.3,4.4
						c49.8,13.3,69.2,48.7,105.2,49.9c25.4,0.1,46.1-20.5,46.1-45.9c0-5.6-1-11.1-2.9-16.3c-8.3-21.9-32.7-33-55.1-26l-16.5,5.2
						c-4.2,1-8.5,1.5-12.8,1.5c-30,0-56.1-51.2-64.2-70.3c-22.1-39.9-64.2-64.7-109.9-64.6c-69.2,0-125.3,55.9-125.3,124.8
						c0,26.6,8.5,52.6,24.4,74l-0.7,0.5c16.3,21.3,12.3,51.7-9,68.1c-21,16.1-50.9,12.4-67.4-8.2l-0.3,0.3
						c-28.6-33.6-70.6-52.9-114.7-52.8c-83.1,0-150.5,67.1-150.5,149.9l-0.3-5.7c0,64.7-52.6,117-117.5,117s-117.5-52.4-117.5-117
						V474c0-52.6-42.9-95.3-95.7-95.3l-4.8,0.2c-2.8,0.1-5.5,0.3-8.2,0.5c-3.5,0.3-7,0.5-10.6,0.5c-46.5,0-86-29.8-99.6-71.1l0,0
						c-14.3-31.5-51.6-45.5-83.1-31.1s-45.5,51.6-31.1,83.1c9.3,20.4,28.7,34.3,51,36.5c44,5.7,77,43.1,77,87.5
						c0,19.1-6.2,37.7-17.8,52.9l9.7-16.2C523.7,600.2,475,632.1,403.9,661l0,0c-14.3,6.4-29.9,9.7-45.6,9.6
						c-61.7,0-111.7-49.8-111.7-111.2c0-24,8.6-45.7,21.6-63.9l0,0c14.7-21.9,8.8-51.5-13-66.2c-7.9-5.3-17.3-8.1-26.8-8.1
						c-6.6-0.1-13.4,1.5-20.3,4.5c-47.2,18.3-63.3,84.3-88.3,101.7l0,0l-0.3,0.2c-15.4,11.9-36.5,13.3-53.3,3.6
						c-24.8-14.2-68.6-43.4-70-75.7"/>
				</defs>
				<clipPath id="SVGID_00000086684569690314030650000011159632027805448605_">
					<use xlink:href="#SVGID_00000052805742028042712470000006007724881682263737_"  style="overflow:visible;"/>
				</clipPath>
				<g style="clip-path:url(#SVGID_00000086684569690314030650000011159632027805448605_);">
					
						<linearGradient id="SVGID_00000163067034609609845030000005892898179091007379_" gradientUnits="userSpaceOnUse" x1="429.3854" y1="855.4252" x2="851.47" y2="855.4252" gradientTransform="matrix(1 0 0 -1 0 1284)">
						<stop  offset="0" style="stop-color:#040407"/>
						<stop  offset="0.56" style="stop-color:#281C43"/>
					</linearGradient>
					<path style="fill:url(#SVGID_00000163067034609609845030000005892898179091007379_);" d="M478.3,502.3
						c0,0-1.8-126.2,75.1-142.3s121.3,69.2,121.3,69.2c140,26.9,130.8,124.8,147.7,161.5c0.1,0.3,0.5,0.4,0.8,0.3
						c0.2-0.1,0.3-0.3,0.3-0.5l28-194.8l-228-41.7L540.8,266c0,0-127.3,1.5-109.7,103.6S478.3,502.3,478.3,502.3z"/>
					
						<linearGradient id="SVGID_00000152944807250165688580000008616734903460024960_" gradientUnits="userSpaceOnUse" x1="390.59" y1="970.935" x2="567.31" y2="970.935" gradientTransform="matrix(1 0 0 -1 0 1284)">
						<stop  offset="0" style="stop-color:#040407"/>
						<stop  offset="0.56" style="stop-color:#281C43"/>
					</linearGradient>
					<path style="fill:url(#SVGID_00000152944807250165688580000008616734903460024960_);" d="M443.6,204.1L567.3,312
						c-53.9-48.5-141.9,20.1-110,110l-66.7-117.1L443.6,204.1z"/>
					
						<linearGradient id="SVGID_00000137102315363108302450000014279425174851165850_" gradientUnits="userSpaceOnUse" x1="353.09" y1="518.545" x2="682" y2="518.545" gradientTransform="matrix(1 0 0 -1 0 1284)">
						<stop  offset="0" style="stop-color:#040407"/>
						<stop  offset="0.56" style="stop-color:#281C43"/>
					</linearGradient>
					<path style="fill:url(#SVGID_00000137102315363108302450000014279425174851165850_);" d="M679.8,688.4
						c-87.1,111.2-219,121-326.8,104.4l273.9,49.7L682,755L679.8,688.4"/>
					
						<linearGradient id="SVGID_00000019645205137953142120000003823899904181631924_" gradientUnits="userSpaceOnUse" x1="1357.7831" y1="1089.3616" x2="1704.4299" y2="1089.3616" gradientTransform="matrix(1 0 0 -1 0 1284)">
						<stop  offset="0" style="stop-color:#040407"/>
						<stop  offset="0.56" style="stop-color:#281C43"/>
					</linearGradient>
					<path style="fill:url(#SVGID_00000019645205137953142120000003823899904181631924_);" d="M1396.8,138.3
						c120.4,4.2,99.2,69.9,180,130.8s127.6-7.9,127.6-7.9L1472.8,95C1472.8,95,1276.4,134.1,1396.8,138.3z"/>
				</g>
			</g>
		</g>
		
			<image style="overflow:visible;enable-background:new    ;" width="142" height="123" xlink:href="F99CCBBA.png"  transform="matrix(1 0 0 1 216 504)">
		</image>
		<path class="st11" d="M410.1,620h30.5c10.1,0,18.2,8.2,18.2,18.2v0c0,10.1-8.2,18.2-18.2,18.2h-30.5c-10.1,0-18.2-8.2-18.2-18.2v0
			C391.9,628.1,400,620,410.1,620z"/>
		<path class="st11" d="M1566.5,474.3h30.5c10.1,0,18.2,8.2,18.2,18.2v0c0,10.1-8.2,18.2-18.2,18.2h-30.5
			c-10.1,0-18.2-8.2-18.2-18.2v0C1548.3,482.4,1556.5,474.3,1566.5,474.3z"/>
		<path class="st11" d="M718.9,180.5h53.6c10.1,0,18.2,8.2,18.2,18.2v0c0,10.1-8.2,18.2-18.2,18.2h-53.6c-10.1,0-18.2-8.2-18.2-18.2
			v0C700.7,188.7,708.9,180.5,718.9,180.5z"/>
		<path class="st12" d="M424.2,306.7h53.6c10.1,0,18.2,8.2,18.2,18.2v0c0,10.1-8.2,18.2-18.2,18.2h-53.6c-10.1,0-18.2-8.2-18.2-18.2
			v0C406,314.8,414.1,306.7,424.2,306.7z"/>
		<path class="st12" d="M1873.4,314.6h53.6c10.1,0,18.2,8.2,18.2,18.2v0c0,10.1-8.2,18.2-18.2,18.2h-53.6
			c-10.1,0-18.2-8.2-18.2-18.2v0C1855.2,322.7,1863.3,314.6,1873.4,314.6z"/>
		<path class="st11" d="M816.4,701.9h30.5c10.1,0,18.2,8.2,18.2,18.2v0c0,10.1-8.2,18.2-18.2,18.2h-30.5c-10.1,0-18.2-8.2-18.2-18.2
			v0C798.2,710,806.3,701.9,816.4,701.9z"/>
		<path class="st12" d="M1658.1,478h30.5c10.1,0,18.2,8.2,18.2,18.2v0c0,10.1-8.2,18.2-18.2,18.2h-30.5c-10.1,0-18.2-8.2-18.2-18.2
			v0C1639.9,486.2,1648,478,1658.1,478z"/>
		<path class="st11" d="M264.8,474.3h30.5c10.1,0,18.2,8.2,18.2,18.2v0c0,10.1-8.2,18.2-18.2,18.2h-30.5c-10.1,0-18.2-8.2-18.2-18.2
			v0C246.6,482.4,254.7,474.3,264.8,474.3z"/>
		<path class="st11" d="M901.6,257.2h73.1c10.1,0,18.2,8.2,18.2,18.2v0c0,10.1-8.2,18.2-18.2,18.2h-73.1c-10.1,0-18.2-8.2-18.2-18.2
			v0C883.3,265.4,891.5,257.2,901.6,257.2z"/>
		<path class="st11" d="M1268.9,701.9h73.1c10.1,0,18.2,8.2,18.2,18.2v0c0,10.1-8.2,18.2-18.2,18.2h-73.1
			c-10.1,0-18.2-8.2-18.2-18.2v0C1250.7,710,1258.9,701.9,1268.9,701.9z"/>
		<path class="st11" d="M1283.9,198.7h99.2c20.1,0,36.4,16.3,36.4,36.4l0,0c0,20.1-16.3,36.4-36.4,36.4h-99.2
			c-20.1,0-36.4-16.3-36.4-36.4l0,0C1247.4,215,1263.8,198.7,1283.9,198.7z"/>
		<path class="st12" d="M1814,798c-10.1,0-18.2-8.1-18.2-18.2c0,0,0,0,0,0l0,0c0-10.1,8.2-18.2,18.2-18.2c0,0,0,0,0,0h571.7
			c20.1,0,36.4-16.3,36.4-36.4c0,0,0,0,0,0l0,0c0-20.1-16.3-36.4-36.4-36.4c0,0,0,0,0,0h-271.4c-20.1,0-36.4-16.3-36.4-36.4
			c0,0,0,0,0,0l0,0c0-20.1,16.3-36.4,36.4-36.4c0,0,0,0,0,0h150.1c10.1,0,18.2-8.2,18.2-18.2c0,0,0,0,0,0l0,0
			c0-10.1-8.2-18.2-18.2-18.2h-207.6c-20.1,0-36.4-16.3-36.4-36.4c0,0,0,0,0,0l0,0c0-20.1,16.3-36.4,36.4-36.4l0,0h57.5
			c10.1,0,18.2-8.2,18.2-18.2l0,0c0-10.1-8.1-18.2-18.2-18.2c0,0,0,0,0,0h-293.7c-10.1,0-18.2,8.2-18.2,18.2c0,0,0,0,0,0l0,0
			c0,10.1,8.2,18.2,18.2,18.2h87c20.1,0,36.4,16.3,36.4,36.4l0,0c0,20.1-16.3,36.4-36.4,36.4l0,0h-345.9c-10.1,0-18.2,8.1-18.2,18.2
			c0,0,0,0,0,0l0,0c0,10.1,8.2,18.2,18.2,18.2h392.6c20.1,0,36.4,16.3,36.4,36.4c0,0,0,0,0,0l0,0c0,20.1-16.3,36.4-36.4,36.4l0,0
			h-299.3c-20.1,0-36.4,16.3-36.4,36.4c0,0,0,0,0,0l0,0c0,20.1,16.3,36.4,36.4,36.4c0,0,0,0,0,0h76.1c10.1,0,18.2,8.2,18.2,18.2l0,0
			c0,10.1-8.1,18.2-18.2,18.2c0,0,0,0,0,0h-219.1c-11.6,0-21,8.2-21,18.2l0,0c0,10,9.4,18.2,21,18.2h367c10.1,0,18.2,8.1,18.2,18.2
			c0,0,0,0,0,0l0,0c0,10-8.1,18.2-18.1,18.2h-691.9c-10.1,0-18.2,8.2-18.2,18.2c0,0,0,0,0,0l0,0c0,10.1,8.2,18.2,18.2,18.2h241.4
			c10.1,0,18.2,8.1,18.2,18.2c0,0,0,0,0,0l0,0c0,10.1-8.2,18.2-18.2,18.2c0,0,0,0,0,0h-60.1c-10.1,0-18.2,8.2-18.2,18.2c0,0,0,0,0,0
			l0,0c0,10.1,8.2,18.2,18.2,18.2h161.2c10.1,0,18.2-8.2,18.2-18.2l0,0c0-10.1-8.1-18.2-18.2-18.2c0,0,0,0,0,0h-38.6
			c-10.1,0-18.2-8.2-18.2-18.2l0,0c0-10.1,8.2-18.2,18.2-18.2h362.1c10.1,0,18.2,8.2,18.2,18.2l0,0c0,10.1-8.2,18.2-18.2,18.2h-71.8
			c-10.1,0-18.2,8.1-18.2,18.2c0,0,0,0,0,0l0,0c0,10.1,8.2,18.2,18.2,18.2h291.7c10.1,0,18.2-8.2,18.2-18.2l0,0
			c0-10.1-8.1-18.2-18.2-18.2c0,0,0,0,0,0h-141.5c-10.1,0-18.2-8.1-18.2-18.2c0,0,0,0,0,0l0,0c0-10.1,8.2-18.2,18.2-18.2
			c0,0,0,0,0,0h251.8c10.1,0,18.2-8.2,18.2-18.2l0,0c0-10.1-8.1-18.2-18.2-18.2c0,0,0,0,0,0h-221.7c-10.1,0-18.2-8.1-18.2-18.2
			c0,0,0,0,0,0l0,0c0-10.1,8.2-18.2,18.2-18.2c0,0,0,0,0,0h336.4c11.6,0,21-8.2,21-18.2l0,0c0-10.1-9.4-18.2-21-18.2L1814,798z"/>
		<circle class="st13" cx="1168.9" cy="153.7" r="10.6"/>
		<circle class="st13" cx="1606.1" cy="232.3" r="10.6"/>
		<circle class="st13" cx="1467.2" cy="652.9" r="10.6"/>
		<circle class="st13" cx="879.3" cy="822" r="10.6"/>
		<circle class="st13" cx="894.8" cy="166.7" r="10.6"/>
		
			<image style="overflow:visible;enable-background:new    ;" width="132" height="114" xlink:href="F99CCBB8.png"  transform="matrix(1 0 0 1 221 509)">
		</image>
		
			<image style="overflow:visible;enable-background:new    ;" width="102" height="96" xlink:href="F99CCBB6.png"  transform="matrix(1 0 0 1 238 515)">
		</image>
		<path class="st11" d="M731.6,773.3c0.1-8.1-6.4-14.7-14.5-14.8c-7.1-0.1-13.2,4.9-14.5,11.9l0,0c-3.7,14.4-16.7,24.5-31.6,24.5
			l0,0h-0.7c-17.8,0-32.3,14.5-32.3,32.3c0,17.8,14.5,32.3,32.3,32.3c16.8,0,30.7-12.8,32.1-29.5l0.1,0.1
			c1.6-17.7,10.2-34.1,23.8-45.6l0,0C729.7,781.7,731.6,777.6,731.6,773.3z"/>
		<g class="st14">
			
				<image style="overflow:visible;enable-background:new    ;" width="187" height="147" xlink:href="F99CCBA9.png"  transform="matrix(1 0 0 1 832 112)">
			</image>
		</g>
		<circle class="st13" cx="146.5" cy="441.6" r="10.6"/>
		
			<image style="overflow:visible;enable-background:new    ;" width="195" height="132" xlink:href="F99CCBAA.png"  transform="matrix(1 0 0 1 981 237)">
		</image>
		<circle class="st13" cx="340.2" cy="131.2" r="8"/>
		<circle class="st15" cx="722.8" cy="431" r="3.5"/>
		
			<image style="overflow:visible;enable-background:new    ;" width="80" height="80" xlink:href="F99CCBA8.png"  transform="matrix(1 0 0 1 882 37)">
		</image>
		
			<image style="overflow:visible;enable-background:new    ;" width="80" height="80" xlink:href="F99CCBAE.png"  transform="matrix(1 0 0 1 1399 671)">
		</image>
		
			<image style="overflow:visible;enable-background:new    ;" width="80" height="80" xlink:href="F99CCBAB.png"  transform="matrix(1 0 0 1 995 747)">
		</image>
		
			<image style="overflow:visible;enable-background:new    ;" width="80" height="80" xlink:href="F99CCBCD.png"  transform="matrix(1 0 0 1 417 1257)">
		</image>
		
			<image style="overflow:visible;enable-background:new    ;" width="80" height="80" xlink:href="F99CCBCF.png"  transform="matrix(1 0 0 1 449 790)">
		</image>
		<g transform="translate(54 415)">
			
				<image style="overflow:visible;enable-background:new    ;" width="80" height="80" id="image" xlink:href="F99CCBCC.png"  transform="matrix(1 0 0 1 54 415)">
			</image>
		</g>
		<g transform="translate(227 267)">
			
				<image style="overflow:visible;enable-background:new    ;" width="80" height="80" id="image_00000044899477877824427940000007450457675917097392_" xlink:href="F99CCBCB.png"  transform="matrix(1 0 0 1 227 267)">
			</image>
		</g>
		
			<image style="overflow:visible;enable-background:new    ;" width="80" height="80" xlink:href="F99CCBC5.png"  transform="matrix(1 0 0 1 922 493)">
		</image>
		
			<image style="overflow:visible;enable-background:new    ;" width="80" height="80" xlink:href="F99CCBC7.png"  transform="matrix(1 0 0 1 541 2)">
		</image>
		
			<image style="overflow:visible;enable-background:new    ;" width="78" height="78" xlink:href="F99CCBC4.png"  transform="matrix(1 0 0 1 697 305)">
		</image>
		
			<image style="overflow:visible;enable-background:new    ;" width="77" height="78" xlink:href="F99CCBFB.png"  transform="matrix(1 0 0 1 743 972)">
		</image>
		
			<image style="overflow:visible;enable-background:new    ;" width="78" height="77" xlink:href="F99CCBFD.png"  transform="matrix(1 0 0 1 681 639)">
		</image>
		<circle class="st16" cx="1177.4" cy="317.1" r="2.2"/>
		
			<image style="overflow:visible;enable-background:new    ;" width="87" height="87" xlink:href="F99CCBFF.png"  transform="matrix(1 0 0 1 1297 113)">
		</image>
		
			<image style="overflow:visible;enable-background:new    ;" width="87" height="87" xlink:href="F99CCBE0.png"  transform="matrix(1 0 0 1 1458 472)">
		</image>
		
			<image style="overflow:visible;enable-background:new    ;" width="87" height="87" xlink:href="F99CCBDF.png"  transform="matrix(1 0 0 1 106 618)">
		</image>
		
			<image style="overflow:visible;enable-background:new    ;" width="87" height="87" xlink:href="F99CCC20.png"  transform="matrix(1 0 0 1 1198 711)">
		</image>
		
			<image style="overflow:visible;enable-background:new    ;" width="77" height="78" xlink:href="F99CCC23.png"  transform="matrix(1 0 0 1 944 72)">
		</image>
		
			<image style="overflow:visible;enable-background:new    ;" width="78" height="77" xlink:href="F99CCC21.png"  transform="matrix(1 0 0 1 1662 49)">
		</image>
		
			<image style="overflow:visible;enable-background:new    ;" width="77" height="77" xlink:href="F99CCC27.png"  transform="matrix(1 0 0 1 1277 32)">
		</image>
		
			<image style="overflow:visible;enable-background:new    ;" width="77" height="77" xlink:href="F99CCC22.png"  transform="matrix(1 0 0 1 1559 636)">
		</image>
		<circle class="st17" cx="1238.8" cy="265.8" r="2.2"/>
		<circle class="st18" cx="660.3" cy="458.9" r="2.2"/>
		
			<image style="overflow:visible;enable-background:new    ;" width="83" height="83" xlink:href="F99CCC2D.png"  transform="matrix(1 0 0 1 1000 120)">
		</image>
		
			<image style="overflow:visible;enable-background:new    ;" width="80" height="79" xlink:href="F99CCC2E.png"  transform="matrix(1 0 0 1 1005 24)">
		</image>
		
			<image style="overflow:visible;enable-background:new    ;" width="79" height="80" xlink:href="F99CCC2F.png"  transform="matrix(1 0 0 1 534 697)">
		</image>
		
			<image style="overflow:visible;enable-background:new    ;" width="79" height="79" xlink:href="F99CCC0B.png"  transform="matrix(1 0 0 1 493 14)">
		</image>
		
			<image style="overflow:visible;enable-background:new    ;" width="82" height="81" xlink:href="F99CCC0D.png"  transform="matrix(1 0 0 1 1032 41)">
		</image>
		
			<image style="overflow:visible;enable-background:new    ;" width="82" height="82" xlink:href="F99CCC0F.png"  transform="matrix(1 0 0 1 992 909)">
		</image>
		
			<image style="overflow:visible;enable-background:new    ;" width="82" height="82" xlink:href="F99CCC0A.png"  transform="matrix(1 0 0 1 1055 697)">
		</image>
		
			<image style="overflow:visible;enable-background:new    ;" width="82" height="81" xlink:href="F99CCC09.png"  transform="matrix(1 0 0 1 559 524)">
		</image>
		
			<image style="overflow:visible;enable-background:new    ;" width="81" height="82" xlink:href="F99CCC05.png"  transform="matrix(1 0 0 1 1135 1282)">
		</image>
		
			<image style="overflow:visible;enable-background:new    ;" width="82" height="82" xlink:href="F99CCC07.png"  transform="matrix(1 0 0 1 797 1168)">
		</image>
		
			<image style="overflow:visible;enable-background:new    ;" width="82" height="82" xlink:href="F99CCC1A.png"  transform="matrix(1 0 0 1 501 1275)">
		</image>
		
			<image style="overflow:visible;enable-background:new    ;" width="82" height="82" xlink:href="F99CCC1B.png"  transform="matrix(1 0 0 1 209 1089)">
		</image>
		
			<image style="overflow:visible;enable-background:new    ;" width="82" height="82" xlink:href="F99CCC1D.png"  transform="matrix(1 0 0 1 1507 638)">
		</image>
		<g transform="translate(1099 -15)">
			
				<image style="overflow:visible;enable-background:new    ;" width="78" height="77" id="image-4" xlink:href="F99CCC7A.png"  transform="matrix(1 0 0 1 1099 -15)">
			</image>
		</g>
		
			<image style="overflow:visible;enable-background:new    ;" width="77" height="78" xlink:href="F99CCC7D.png"  transform="matrix(1 0 0 1 1118 -6)">
		</image>
		<g transform="translate(1769 70)">
			
				<image style="overflow:visible;enable-background:new    ;" width="77" height="77" id="image-2" xlink:href="F99CCC7E.png"  transform="matrix(1 0 0 1 1769 70)">
			</image>
		</g>
		
			<image style="overflow:visible;enable-background:new    ;" width="78" height="78" xlink:href="F99CCC7C.png"  transform="matrix(1 0 0 1 1656 70)">
		</image>
		
			<image style="overflow:visible;enable-background:new    ;" width="78" height="78" xlink:href="F99CCC7B.png"  transform="matrix(1 0 0 1 1595 40)">
		</image>
		<g transform="translate(1137 623)">
			
				<image style="overflow:visible;enable-background:new    ;" width="77" height="77" id="image-2_00000153668437455189576890000005096183287601469881_" xlink:href="F99CCC75.png"  transform="matrix(1 0 0 1 1137 623)">
			</image>
		</g>
		<g transform="translate(232 1279)">
			
				<image style="overflow:visible;enable-background:new    ;" width="77" height="78" id="image-3_00000052809070149444866040000009180460583272522384_" xlink:href="F99CCC76.png"  transform="matrix(1 0 0 1 232 1279)">
			</image>
		</g>
		
			<image style="overflow:visible;enable-background:new    ;" width="78" height="77" xlink:href="F99CCC74.png"  transform="matrix(1 0 0 1 380 1049)">
		</image>
		
			<image style="overflow:visible;enable-background:new    ;" width="77" height="77" xlink:href="F99CCC6A.png"  transform="matrix(1 0 0 1 810 78)">
		</image>
		
			<image style="overflow:visible;enable-background:new    ;" width="78" height="77" xlink:href="F99CCC6D.png"  transform="matrix(1 0 0 1 793 81)">
		</image>
		<g transform="translate(1065 41)">
			
				<image style="overflow:visible;enable-background:new    ;" width="78" height="77" id="image-4_00000167355089949737298980000000194880392193248184_" xlink:href="F99CCC51.png"  transform="matrix(1 0 0 1 1065 41)">
			</image>
		</g>
		
			<image style="overflow:visible;enable-background:new    ;" width="77" height="78" xlink:href="F99CCC53.png"  transform="matrix(1 0 0 1 1081 722)">
		</image>
		
			<image style="overflow:visible;enable-background:new    ;" width="78" height="78" xlink:href="F99CCC50.png"  transform="matrix(1 0 0 1 1599 247)">
		</image>
		
			<image style="overflow:visible;enable-background:new    ;" width="77" height="77" xlink:href="F99CCC4F.png"  transform="matrix(1 0 0 1 635 495)">
		</image>
		
			<image style="overflow:visible;enable-background:new    ;" width="78" height="77" xlink:href="F99CCC31.png"  transform="matrix(1 0 0 1 571 -10)">
		</image>
		
			<image style="overflow:visible;enable-background:new    ;" width="77" height="77" xlink:href="F99CCC33.png"  transform="matrix(1 0 0 1 16 241)">
		</image>
		
			<image style="overflow:visible;enable-background:new    ;" width="77" height="78" xlink:href="F99CCC30.png"  transform="matrix(1 0 0 1 586 -4)">
		</image>
		
			<image style="overflow:visible;enable-background:new    ;" width="78" height="78" xlink:href="F99CCC37.png"  transform="matrix(1 0 0 1 244 102)">
		</image>
		<g transform="translate(74 379)">
			
				<image style="overflow:visible;enable-background:new    ;" width="77" height="77" id="image-2_00000018918409014171757910000009288148803848010161_" xlink:href="F99CCC32.png"  transform="matrix(1 0 0 1 74 379)">
			</image>
		</g>
		
			<image style="overflow:visible;enable-background:new    ;" width="82" height="82" xlink:href="F99CCC3E.png"  transform="matrix(1 0 0 1 1257 10)">
		</image>
		
			<image style="overflow:visible;enable-background:new    ;" width="84" height="83" xlink:href="F99CCCD4.png"  transform="matrix(1 0 0 1 125 365)">
		</image>
		
			<image style="overflow:visible;enable-background:new    ;" width="83" height="83" xlink:href="F99CCCDB.png"  transform="matrix(1 0 0 1 503 636)">
		</image>
		
			<image style="overflow:visible;enable-background:new    ;" width="80" height="80" xlink:href="F99CCCDC.png"  transform="matrix(1 0 0 1 805 355)">
		</image>
		
			<image style="overflow:visible;enable-background:new    ;" width="80" height="80" xlink:href="F99CCCDF.png"  transform="matrix(1 0 0 1 549 493)">
		</image>
		
			<image style="overflow:visible;enable-background:new    ;" width="80" height="80" xlink:href="F99CCCDD.png"  transform="matrix(1 0 0 1 548 52)">
		</image>
		
			<image style="overflow:visible;enable-background:new    ;" width="80" height="80" xlink:href="F99CCCDA.png"  transform="matrix(1 0 0 1 300 177)">
		</image>
		
			<image style="overflow:visible;enable-background:new    ;" width="80" height="80" xlink:href="F99CCCD5.png"  transform="matrix(1 0 0 1 212 319)">
		</image>
		
			<image style="overflow:visible;enable-background:new    ;" width="80" height="80" xlink:href="F99CCCD7.png"  transform="matrix(1 0 0 1 412 542)">
		</image>
		<circle class="st13" cx="960.6" cy="397.2" r="6.1"/>
		<circle class="st13" cx="317.7" cy="407.2" r="12"/>
		<circle class="st13" cx="415.3" cy="264.4" r="20.4"/>
		<circle class="st13" cx="626.2" cy="955.8" r="20.4"/>
		
			<image style="overflow:visible;enable-background:new    ;" width="80" height="80" xlink:href="F99CCCCA.png"  transform="matrix(1 0 0 1 1122 208)">
		</image>
		<circle class="st19" cx="918.2" cy="675.6" r="3.5"/>
		<circle class="st13" cx="1333.5" cy="876.3" r="24.5"/>
		<circle class="st13" cx="1473.8" cy="380.6" r="24.5"/>
		<circle class="st13" cx="970.6" cy="213" r="24.5"/>
		<g class="st20">
			
				<image style="overflow:visible;enable-background:new    ;" width="122" height="122" xlink:href="F99CCCCB.png"  transform="matrix(1 0 0 1 1741 234)">
			</image>
		</g>
		
			<image style="overflow:visible;enable-background:new    ;" width="147" height="149" xlink:href="F99CCCE7.png"  transform="matrix(1 0 0 1 39 294)">
		</image>
		
			<image style="overflow:visible;enable-background:new    ;" width="219" height="221" xlink:href="F99CCCE9.png"  transform="matrix(1 0 0 1 1453 649)">
		</image>
		<g class="st21">
			
				<image style="overflow:visible;enable-background:new    ;" width="147" height="149" xlink:href="F99CCCEB.png"  transform="matrix(1 0 0 1 551 164)">
			</image>
		</g>
		<g class="st21">
			
				<image style="overflow:visible;enable-background:new    ;" width="147" height="150" xlink:href="F99CCCEE.png"  transform="matrix(1 0 0 1 1036 117)">
			</image>
		</g>
		
			<image style="overflow:visible;enable-background:new    ;" width="147" height="150" xlink:href="F99CCCEF.png"  transform="matrix(1 0 0 1 58 814)">
		</image>
		<g class="st20">
			
				<image style="overflow:visible;enable-background:new    ;" width="147" height="149" xlink:href="F99CCCEA.png"  transform="matrix(1 0 0 1 357 66)">
			</image>
		</g>
		<path class="st2" d="M1571.9,349.5L1571.9,349.5c0-3.5,2.3-6.6,5.7-7.6c14-4.1,22-18.7,17.9-32.7s-18.7-22-32.7-17.9
			c-12.3,3.6-20.2,15.6-18.8,28.4l0,0c0.8,4.4-0.9,8.9-4.4,11.7c-10.3,6-13.8,19.1-7.8,29.4c6,10.3,19.1,13.8,29.4,7.8
			C1568,364.7,1572.1,357.4,1571.9,349.5L1571.9,349.5z"/>
		
			<image style="overflow:visible;enable-background:new    ;" width="137" height="111" xlink:href="F99CCCE5.png"  transform="matrix(1 0 0 1 1008 243)">
		</image>
		
			<image style="overflow:visible;enable-background:new    ;" width="97" height="94" xlink:href="F99CCCE6.png"  transform="matrix(1 0 0 1 1026 248)">
		</image>
		
			<image style="overflow:visible;enable-background:new    ;" width="86" height="85" xlink:href="F99CCCE4.png"  transform="matrix(1 0 0 1 1030 250)">
		</image>
		
			<image style="overflow:visible;enable-background:new    ;" width="169" height="107" xlink:href="F99CCC99.png"  transform="matrix(1 0 0 1 646 811)">
		</image>
		
			<image style="overflow:visible;enable-background:new    ;" width="122" height="98" xlink:href="F99CCC86.png"  transform="matrix(1 0 0 1 669 812)">
		</image>
		
			<image style="overflow:visible;enable-background:new    ;" width="155" height="154" xlink:href="F99CCC81.png"  transform="matrix(1 0 0 1 651 779)">
		</image>
		
			<image style="overflow:visible;enable-background:new    ;" width="169" height="107" xlink:href="F99CCC82.png"  transform="matrix(1 0 0 1 1534 420)">
		</image>
		
			<image style="overflow:visible;enable-background:new    ;" width="123" height="98" xlink:href="F99CCC80.png"  transform="matrix(1 0 0 1 1557 421)">
		</image>
		
			<image style="overflow:visible;enable-background:new    ;" width="83" height="82" xlink:href="F99CCCBE.png"  transform="matrix(1 0 0 1 1575 424)">
		</image>
		
			<image style="overflow:visible;enable-background:new    ;" width="86" height="86" xlink:href="F99CCC83.png"  transform="matrix(1 0 0 1 247 519)">
		</image>
		
			<image style="overflow:visible;enable-background:new    ;" width="127" height="101" xlink:href="F99CCC87.png"  transform="matrix(1 0 0 1 1182 230)">
		</image>
		
			<image style="overflow:visible;enable-background:new    ;" width="181" height="119" xlink:href="F99CCC85.png"  transform="matrix(1 0 0 1 1130 897)">
		</image>
		
			<image style="overflow:visible;enable-background:new    ;" width="228" height="146" xlink:href="F99CCC8C.png"  transform="matrix(1 0 0 1 565 924)">
		</image>
		
			<image style="overflow:visible;enable-background:new    ;" width="126" height="126" xlink:href="F99CCC8D.png"  transform="matrix(1 0 0 1 472 134)">
		</image>
		
			<image style="overflow:visible;enable-background:new    ;" width="208" height="207" xlink:href="13A97150.png"  transform="matrix(1 0 0 1 431 93)">
		</image>
		
			<image style="overflow:visible;enable-background:new    ;" width="126" height="126" xlink:href="13A97153.png"  transform="matrix(1 0 0 1 742 686)">
		</image>
		
			<image style="overflow:visible;enable-background:new    ;" width="208" height="207" xlink:href="13A97151.png"  transform="matrix(1 0 0 1 701 645)">
		</image>
		
			<image style="overflow:visible;enable-background:new    ;" width="86" height="86" xlink:href="13A9715F.png"  transform="matrix(1 0 0 1 84 1278)">
		</image>
		
			<image style="overflow:visible;enable-background:new    ;" width="106" height="106" xlink:href="13A97152.png"  transform="matrix(1 0 0 1 74 1268)">
		</image>
		
			<image style="overflow:visible;enable-background:new    ;" width="148" height="148" xlink:href="13A97155.png"  transform="matrix(1 0 0 1 1247 581)">
		</image>
		
			<image style="overflow:visible;enable-background:new    ;" width="263" height="262" xlink:href="13A97156.png"  transform="matrix(1 0 0 1 1190 523)">
		</image>
		
			<image style="overflow:visible;enable-background:new    ;" width="106" height="105" xlink:href="13A97157.png"  transform="matrix(1 0 0 1 1255 269)">
		</image>
		
			<image style="overflow:visible;enable-background:new    ;" width="156" height="156" xlink:href="13A9714C.png"  transform="matrix(1 0 0 1 1230 243)">
		</image>
		
			<image style="overflow:visible;enable-background:new    ;" width="108" height="108" xlink:href="13A9714D.png"  transform="matrix(1 0 0 1 879 886)">
		</image>
		
			<image style="overflow:visible;enable-background:new    ;" width="161" height="161" xlink:href="13A97137.png"  transform="matrix(1 0 0 1 853 859)">
		</image>
		
			<image style="overflow:visible;enable-background:new    ;" width="114" height="115" xlink:href="13A97135.png"  transform="matrix(1 0 0 1 588 220)">
		</image>
		
			<image style="overflow:visible;enable-background:new    ;" width="180" height="179" xlink:href="13A9712B.png"  transform="matrix(1 0 0 1 555 187)">
		</image>
		
			<image style="overflow:visible;enable-background:new    ;" width="111" height="111" xlink:href="13A9712D.png"  transform="matrix(1 0 0 1 121 278)">
		</image>
		
			<image style="overflow:visible;enable-background:new    ;" width="170" height="169" xlink:href="13A9712F.png"  transform="matrix(1 0 0 1 92 248)">
		</image>
		
			<image style="overflow:visible;enable-background:new    ;" width="100" height="100" xlink:href="13A9712A.png"  transform="matrix(1 0 0 1 465 499)">
		</image>
		
			<image style="overflow:visible;enable-background:new    ;" width="141" height="141" xlink:href="13A97129.png"  transform="matrix(1 0 0 1 445 478)">
		</image>
		
			<image style="overflow:visible;enable-background:new    ;" width="108" height="107" xlink:href="13A97115.png"  transform="matrix(1 0 0 1 1150 949)">
		</image>
		
			<image style="overflow:visible;enable-background:new    ;" width="161" height="160" xlink:href="13A97117.png"  transform="matrix(1 0 0 1 1124 922)">
		</image>
		
			<image style="overflow:visible;enable-background:new    ;" width="100" height="100" xlink:href="13A9711A.png"  transform="matrix(1 0 0 1 624 1198)">
		</image>
		
			<image style="overflow:visible;enable-background:new    ;" width="142" height="141" xlink:href="13A97106.png"  transform="matrix(1 0 0 1 603 1177)">
		</image>
		
			<image style="overflow:visible;enable-background:new    ;" width="125" height="125" xlink:href="13A97105.png"  transform="matrix(1 0 0 1 1667 115)">
		</image>
		
			<image style="overflow:visible;enable-background:new    ;" width="205" height="205" xlink:href="13A971FA.png"  transform="matrix(1 0 0 1 1627 74)">
		</image>
		<path class="st12" d="M32.4,542.5c10.9,0,19.7-8.8,19.7-19.7c0,0,0,0,0,0l0,0c0-10.9-8.8-19.7-19.7-19.7c0,0,0,0,0,0h-619.6
			c-21.8,0-39.5-17.7-39.5-39.5l0,0c0-21.8,17.7-39.5,39.5-39.5H-293c21.8,0,39.5-17.7,39.5-39.5l0,0l0,0
			c0-21.8-17.7-39.5-39.5-39.5c0,0,0,0,0,0h-162.7c-10.9,0-19.7-8.8-19.7-19.7l0,0l0,0c0-10.9,8.8-19.7,19.7-19.7h225
			c21.8,0,39.5-17.7,39.5-39.5c0,0,0,0,0,0l0,0c0-21.8-17.7-39.5-39.5-39.5l0,0H-293c-10.9,0-19.7-8.8-19.7-19.7l0,0
			c0-10.9,8.8-19.7,19.7-19.7H25.4c10.9,0,19.7,8.8,19.7,19.7l0,0l0,0c0,10.9-8.8,19.7-19.7,19.7c0,0,0,0,0,0H-69
			c-21.8,0-39.5,17.7-39.5,39.5c0,0,0,0,0,0l0,0c0,21.8,17.7,39.4,39.5,39.4h374.9c10.9,0,19.7,8.8,19.7,19.7l0,0
			c0,10.9-8.8,19.7-19.7,19.7h-425.4c-21.8,0-39.5,17.7-39.5,39.5c0,0,0,0,0,0l0,0c0,21.8,17.7,39.5,39.5,39.5l0,0h324.4
			c21.8,0,39.5,17.7,39.5,39.5l0,0c0,21.8-17.7,39.5-39.5,39.5h-82.5c-10.9,0-19.7,8.8-19.7,19.7l0,0l0,0c0,10.9,8.8,19.7,19.7,19.7
			c0,0,0,0,0,0h237.5c12.5,0,22.7,8.8,22.7,19.7l0,0c0,10.9-10.2,19.7-22.7,19.7H-37.9c-10.9,0-19.7,8.8-19.7,19.7l0,0
			c0,10.9,8.8,19.7,19.7,19.7h749.8c10.9,0,19.7,8.8,19.7,19.7l0,0c0,10.9-8.8,19.8-19.7,19.8c0,0,0,0,0,0H450.3
			c-10.9,0-19.7,8.8-19.7,19.7c0,0,0,0,0,0l0,0c0,10.9,8.8,19.7,19.7,19.7h65.1c10.9,0,19.7,8.8,19.7,19.7c0,0,0,0,0,0l0,0
			c0,10.9-8.8,19.7-19.7,19.7c0,0,0,0,0,0H340.7c-10.9,0-19.7-8.9-19.7-19.8c0,0,0,0,0,0l0,0c0-10.9,8.8-19.7,19.7-19.7h41.9
			c10.9,0,19.7-8.8,19.7-19.7c0,0,0,0,0,0l0,0c0-10.9-8.9-19.7-19.8-19.7H-9.9c-10.9,0-19.7,8.8-19.7,19.7c0,0,0,0,0,0l0,0
			c0,10.9,8.9,19.7,19.7,19.7H68c10.9,0,19.7,8.8,19.7,19.7l0,0c0,10.9-8.8,19.7-19.7,19.7h-316.1c-10.9,0-19.7-8.8-19.7-19.7
			c0,0,0,0,0,0l0,0c0-10.9,8.8-19.7,19.7-19.7c0,0,0,0,0,0h153.4c10.9,0,19.7-8.8,19.7-19.7l0,0c0-10.9-8.9-19.7-19.7-19.7h-272.9
			c-10.9,0-19.7-8.8-19.7-19.7l0,0c0-10.9,8.8-19.7,19.7-19.7h240.3c10.9,0,19.7-8.8,19.7-19.7l0,0c0-10.9-8.8-19.8-19.7-19.8
			c0,0,0,0,0,0H-492c-12.5,0-22.7-8.8-22.7-19.7l0,0c0-10.9,10.2-19.7,22.7-19.7H32.4z"/>
		<g>
			<defs>
				<path id="SVGID_00000015342462420024524280000018081269433158355076_" d="M274.1,877.8c3.2,2.3,4.1,6.6,2.2,10l-20.8,38.5
					c-1.5,2.3-3.5,4.1-6,5.2l0,0l-23,8.5c-3.7,1.3-7.1-0.8-8.8-4.3c-1.9-4-0.8-8.1,3.3-9.7l19.6-7.2c1.6-0.6,2.9-1.7,3.7-3.2
					l19.1-35.2c2-3.6,6.5-5,10.2-3C273.8,877.5,274,877.6,274.1,877.8z"/>
			</defs>
			<clipPath id="SVGID_00000061464947750753321580000011211244366488302213_">
				<use xlink:href="#SVGID_00000015342462420024524280000018081269433158355076_"  style="overflow:visible;"/>
			</clipPath>
		</g>
		<g>
			<defs>
				<path id="SVGID_00000037678875893386860400000007212073639855307663_" d="M277.4,901.9l25.8-33.2c11.7-15.1,28.9-24.8,47.9-27.2
					l12.3-1.5C358.6,887.2,328.1,905.7,277.4,901.9z"/>
			</defs>
			<clipPath id="SVGID_00000054229005060950460640000014085269549603225247_">
				<use xlink:href="#SVGID_00000037678875893386860400000007212073639855307663_"  style="overflow:visible;"/>
			</clipPath>
		</g>
		<path class="st22" d="M1913.8,740.3c175-53.2,312-61.8,331.3-14.3c24.6,60.6-152.1,189.5-394.6,287.9s-459,129.1-483.6,68.6
			c-19.1-47.1,83.6-135.6,244.3-218.9"/>
		
			<ellipse transform="matrix(0.7071 -0.7071 0.7071 0.7071 -124.1048 1567.9246)" class="st22" cx="1830.6" cy="933.8" rx="303.5" ry="303.5"/>
		<path class="st23" d="M1958.4,745.6c147.1-42.4,257.2-50.3,272-13.7c20.6,50.9-151,168.6-383.5,262.9s-437.6,129.6-458.2,78.7
			c-14.7-36.2,68.1-106.3,200.9-177.8"/>
		<circle class="st23" cx="1830.6" cy="933.5" r="291.4"/>
		
			<ellipse transform="matrix(0.7071 -0.7071 0.7071 0.7071 -123.9139 1567.8455)" class="st24" cx="1830.6" cy="933.5" rx="279.5" ry="279.5"/>
		
			<radialGradient id="SVGID_00000067937825378463644320000004517225603361439152_" cx="1830.5999" cy="350.5" r="253.02" gradientTransform="matrix(1 0 0 -1 0 1284)" gradientUnits="userSpaceOnUse">
			<stop  offset="0" style="stop-color:#040407"/>
			<stop  offset="1" style="stop-color:#1C1835"/>
		</radialGradient>
		<circle style="fill:url(#SVGID_00000067937825378463644320000004517225603361439152_);" cx="1830.6" cy="933.5" r="253"/>
		<g>
			<defs>
				
					<ellipse id="SVGID_00000066478205783394047840000013820869826353743769_" transform="matrix(0.7071 -0.7071 0.7071 0.7071 -123.9139 1567.8455)" cx="1830.6" cy="933.5" rx="253" ry="253"/>
			</defs>
			<clipPath id="SVGID_00000124862242531865606290000004927811296510712741_">
				<use xlink:href="#SVGID_00000066478205783394047840000013820869826353743769_"  style="overflow:visible;"/>
			</clipPath>
			<g style="clip-path:url(#SVGID_00000124862242531865606290000004927811296510712741_);">
				
					<image style="overflow:visible;enable-background:new    ;" width="313" height="404" xlink:href="13A971FD.png"  transform="matrix(1 0 0 1 1542 817)">
				</image>
				
					<image style="overflow:visible;enable-background:new    ;" width="273" height="252" xlink:href="13A971FE.png"  transform="matrix(1 0 0 1 1558 639)">
				</image>
			</g>
		</g>
		<circle class="st27" cx="1848.3" cy="771.3" r="40.4"/>
		<circle class="st28" cx="1666.2" cy="920.7" r="24.6"/>
		<circle class="st28" cx="1872.6" cy="1093.9" r="12.3"/>
		<path class="st24" d="M2004.8,746.9c114.5-30.3,196.3-35.3,207.5-7.7c17.5,43.1-144.5,149.6-361.8,237.8s-407.6,124.7-425.2,81.6
			c-11.1-27.4,50.2-80.4,152.1-138C1407.8,1135.6,2278.7,827.2,2004.8,746.9z"/>
		<path class="st28" d="M1967.1,889.4c17-9.8,22.7-31.7,12.7-48.9l0,0c-10-17.2-31.8-23.2-48.7-13.5l-86.2,49.8
			c-16.7,9.6-38,3.9-47.6-12.8l0,0c-9.6-16.7-3.9-38,12.7-47.6l161.4-93.2c68.5,52,104.7,112.3,110.5,180.4l-192.2,111
			c-16.7,9.6-38,3.9-47.6-12.7c0,0,0,0,0,0l0,0c-9.6-16.7-3.9-38,12.8-47.6L1967.1,889.4z"/>
		<path class="st22" d="M1654.7,1114.7l64.8-37.4c16.7-9.6,38-3.9,47.6,12.7c0,0,0,0,0,0l0,0c9.6,16.7,3.9,38-12.8,47.6c0,0,0,0,0,0
			l-37.7,21.8C1693.5,1148.2,1672.6,1133.1,1654.7,1114.7z"/>
		
			<image style="overflow:visible;enable-background:new    ;" width="425" height="223" xlink:href="13A971FC.png"  transform="matrix(1 0 0 1 1533 1058)">
		</image>
	</g>
</g>
</svg>
