<?xml version="1.0" encoding="UTF-8" standalone="no"?>
<svg
   xmlns:dc="http://purl.org/dc/elements/1.1/"
   xmlns:cc="http://creativecommons.org/ns#"
   xmlns:rdf="http://www.w3.org/1999/02/22-rdf-syntax-ns#"
   xmlns:svg="http://www.w3.org/2000/svg"
   xmlns="http://www.w3.org/2000/svg"
   xmlns:sodipodi="http://sodipodi.sourceforge.net/DTD/sodipodi-0.dtd"
   xmlns:inkscape="http://www.inkscape.org/namespaces/inkscape"
   width="750"
   height="175"
   viewBox="0 0 198.43749 46.302084"
   version="1.1"
   id="svg29"
   sodipodi:docname="feathers-cloud-text-logo-v5-white.svg"
   inkscape:version="1.0.2 (e86c8708, 2021-01-15)"
   inkscape:export-filename="/Users/daffl/Feathers/Design/feathers-cloud-logo-v5.png"
   inkscape:export-xdpi="96"
   inkscape:export-ydpi="96">
  <defs
     id="defs23">
    <inkscape:path-effect
       effect="fillet_chamfer"
       id="path-effect167"
       is_visible="true"
       lpeversion="1"
       satellites_param="F,0,0,1,0,0,0,1 @ F,0,0,1,0,0,0,1 @ F,0,0,1,0,0,0,1 @ F,0,0,1,0,0,0,1 @ F,0,0,1,0,0,0,1 @ F,0,0,1,0,0,0,1 @ F,0,0,1,0,0,0,1 @ F,0,0,1,0,0,0,1 @ F,0,0,1,0,0,0,1 @ F,0,0,1,0,0,0,1 @ F,0,0,1,0,0,0,1 @ F,0,0,1,0,0,0,1 @ F,0,0,1,0,0,0,1 @ F,0,0,1,0,0,0,1 @ F,0,0,1,0,0,0,1 @ F,0,0,1,0,0,0,1 | F,0,0,1,0,0,0,1 @ F,0,0,1,0,0,0,1 @ F,0,0,1,0,0,0,1 @ F,0,0,1,0,0,0,1 @ F,0,0,1,0,0,0,1 @ F,0,0,1,0,0,0,1 @ F,0,0,1,0,0,0,1 @ F,0,0,1,0,0,0,1 @ F,0,0,1,0,0,0,1 @ F,0,0,1,0,0,0,1 @ F,0,0,1,0,0,0,1 @ F,0,0,1,0,0,0,1 @ F,0,0,1,0,0,0,1 @ F,0,0,1,0,0,0,1 @ F,0,0,1,0,0,0,1 @ F,0,0,1,0,0,0,1 @ F,0,0,1,0,0,0,1 @ F,0,0,1,0,0,0,1 @ F,0,0,1,0,0,0,1 @ F,0,0,1,0,0,0,1 @ F,0,0,1,0,0,0,1 @ F,0,0,1,0,0,0,1 @ F,0,0,1,0,0,0,1"
       unit="px"
       method="auto"
       mode="F"
       radius="0"
       chamfer_steps="1"
       flexible="false"
       use_knot_distance="true"
       apply_no_radius="true"
       apply_with_radius="true"
       only_selected="false"
       hide_knots="false" />
    <clipPath
       id="clip-path">
      <rect
         class="cls-1"
         width="595.28003"
         height="595.28003"
         id="rect83"
         x="0"
         y="0" />
    </clipPath>
  </defs>
  <sodipodi:namedview
     id="base"
     pagecolor="#ffffff"
     bordercolor="#666666"
     borderopacity="1.0"
     inkscape:pageopacity="0.0"
     inkscape:pageshadow="2"
     inkscape:zoom="0.97361824"
     inkscape:cx="325.8842"
     inkscape:cy="3.0575236"
     inkscape:document-units="mm"
     inkscape:current-layer="layer1"
     inkscape:document-rotation="0"
     showgrid="false"
     units="px"
     inkscape:pagecheckerboard="true"
     inkscape:window-width="1615"
     inkscape:window-height="974"
     inkscape:window-x="2012"
     inkscape:window-y="274"
     inkscape:window-maximized="0" />
  <metadata
     id="metadata26">
    <rdf:RDF>
      <cc:Work
         rdf:about="">
        <dc:format>image/svg+xml</dc:format>
        <dc:type
           rdf:resource="http://purl.org/dc/dcmitype/StillImage" />
        <dc:title></dc:title>
      </cc:Work>
    </rdf:RDF>
  </metadata>
  <g
     inkscape:label="Layer 1"
     inkscape:groupmode="layer"
     id="layer1">
    <path
       id="path16"
       style="fill:#ffffff;fill-opacity:1;stroke-width:0.14447"
       d="m 107.57395,10.398008 c -3.63818,-0.0071 -6.85949,2.39824 -7.954737,5.93983 -4.541737,1.459327 -7.112207,6.352276 -5.790127,11.021621 1.32208,4.669346 6.053347,7.407961 10.657474,6.16887 l 0.9139,-1.899237 c -0.24745,-0.07199 -0.51082,-0.08484 -0.76675,-0.01973 -1.50966,0.535784 -3.20969,0.5598 -4.716387,-0.0024 -1.573327,-0.558614 -2.909837,-1.749955 -3.708117,-3.191095 -0.91901,-1.632332 -1.14467,-3.567439 -0.68038,-5.384009 0.5288,-2.18484 2.20489,-4.062398 4.291297,-4.867164 0.492667,-0.181985 1.120377,-0.290441 1.359967,-0.824186 0.21772,-0.791822 0.53763,-1.562776 1.00507,-2.242528 0.89093,-1.347209 2.29898,-2.353352 3.85862,-2.7239 1.45003,-0.348082 3.0348,-0.178032 4.37943,0.501734 0.11831,0.0496 0.22774,0.113487 0.33406,0.182304 l 1.3054,-1.308579 c -1.33886,-0.879382 -2.89666,-1.348428 -4.48872,-1.351531 z m 17.91557,2.309023 -1.32512,1.328623 c 0.53305,1.115498 0.91099,2.413271 0.75976,3.645282 -0.05,0.724624 -0.33401,1.396682 -0.55137,2.080747 -0.30382,0.745384 0.19156,1.622599 0.92154,1.883647 0.48076,0.139013 1.00047,0.07427 1.4823,0.222392 0.70984,0.183924 1.40106,0.521263 1.99214,0.956061 0.68194,0.501721 1.28006,1.158386 1.72075,1.904646 0.96648,1.597112 1.1391,3.619399 0.52575,5.375101 -0.58912,1.792835 -2.05293,3.258898 -3.83601,3.869742 -2.32644,0.860074 -5.11658,0.01571 -6.65823,-1.904806 -0.51614,-0.932748 -1.92619,-1.250297 -2.74522,-0.531481 -0.55862,0.997204 -1.32202,1.891535 -2.27068,2.536347 -0.95305,0.655468 -2.11984,1.031825 -3.24695,1.122776 -1.12216,0.08272 -2.2549,-0.149849 -3.26923,-0.63186 l -0.78123,1.623555 c 3.86248,1.842106 8.46422,0.483334 10.76691,-3.179183 1.63628,2.119991 4.19795,3.270913 6.83461,3.070695 2.63666,-0.200218 5.00329,-1.725375 6.3143,-4.069165 1.31102,-2.343789 1.39486,-5.19952 0.22367,-7.619223 -1.1712,-2.419703 -3.44416,-4.086747 -6.06436,-4.447736 h -0.0857 c 0.92112,-2.368763 0.55724,-5.038856 -0.70758,-7.23616 z"
       sodipodi:nodetypes="ccscccccccccccccccccccccccccccccccsssccc"
       inkscape:original-d="m 107.57395,10.398008 c -3.63818,-0.0071 -6.85949,2.39824 -7.954737,5.93983 -4.541737,1.459327 -7.112207,6.352276 -5.790127,11.021621 1.32208,4.669346 6.053347,7.407961 10.657474,6.16887 l 0.9139,-1.899237 c -0.24745,-0.07199 -0.51082,-0.08484 -0.76675,-0.01973 -1.50966,0.535784 -3.20969,0.5598 -4.716387,-0.0024 -1.573327,-0.558614 -2.909837,-1.749955 -3.708117,-3.191095 -0.91901,-1.632332 -1.14467,-3.567439 -0.68038,-5.384009 0.5288,-2.18484 2.20489,-4.062398 4.291297,-4.867164 0.492667,-0.181985 1.120377,-0.290441 1.359967,-0.824186 0.21772,-0.791822 0.53763,-1.562776 1.00507,-2.242528 0.89093,-1.347209 2.29898,-2.353352 3.85862,-2.7239 1.45003,-0.348082 3.0348,-0.178032 4.37943,0.501734 0.11831,0.0496 0.22774,0.113487 0.33406,0.182304 l 1.3054,-1.308579 c -1.33886,-0.879382 -2.89666,-1.348428 -4.48872,-1.351531 z m 17.91557,2.309023 -1.32512,1.328623 c 0.53305,1.115498 0.91099,2.413271 0.75976,3.645282 -0.05,0.724624 -0.33401,1.396682 -0.55137,2.080747 -0.30382,0.745384 0.19156,1.622599 0.92154,1.883647 0.48076,0.139013 1.00047,0.07427 1.4823,0.222392 0.70984,0.183924 1.40106,0.521263 1.99214,0.956061 0.68194,0.501721 1.28006,1.158386 1.72075,1.904646 0.96648,1.597112 1.1391,3.619399 0.52575,5.375101 -0.58912,1.792835 -2.05293,3.258898 -3.83601,3.869742 -2.32644,0.860074 -5.11658,0.01571 -6.65823,-1.904806 -0.51614,-0.932748 -1.92619,-1.250297 -2.74522,-0.531481 -0.55862,0.997204 -1.32202,1.891535 -2.27068,2.536347 -0.95305,0.655468 -2.11984,1.031825 -3.24695,1.122776 -1.12216,0.08272 -2.2549,-0.149849 -3.26923,-0.63186 l -0.78123,1.623555 c 3.86248,1.842106 8.46422,0.483334 10.76691,-3.179183 1.63628,2.119991 4.19795,3.270913 6.83461,3.070695 2.63666,-0.200218 5.00329,-1.725375 6.3143,-4.069165 1.31102,-2.343789 1.39486,-5.19952 0.22367,-7.619223 -1.1712,-2.419703 -3.44416,-4.086747 -6.06436,-4.447736 h -0.0857 c 0.92112,-2.368763 0.55724,-5.038856 -0.70758,-7.23616 z"
       inkscape:path-effect="#path-effect167" />
    <g
       class="cls-2"
       clip-path="url(#clip-path)"
       id="g92"
       transform="matrix(0.09982602,0,0,0.1252892,86.800356,-12.802305)">
      <path
         id="path90"
         d="m 351.61,191.69 c 24.90836,-1.25499 56.52217,-10.23269 65.29213,-36.31526 -6.86313,-21.8351 -37.14447,-15.11962 -54.63342,-11.77648 -23.8069,6.51678 -44.63986,21.43185 -60.91871,39.71174 5.39185,-11.51886 1.38522,-15.54871 -7.88948,-6.16701 -13.41337,6.5167 -24.77254,30.39327 -29.10035,34.92031 -11.41194,-16.79514 -13.56793,26.15439 -28.395,25.06694 -12.56239,2.03375 -4.96647,37.46644 -14.3549,22.64975 -11.9765,12.68486 0.25808,36.88597 -16.21681,38.67687 -6.14016,17.05734 -7.71721,35.38797 -6.70346,53.40314 23.49574,-48.4976 45.94715,-100.60083 87.91083,-136.2381 6.80352,-5.89595 20.51478,-12.38321 6.77123,-2.09503 -60.90466,53.98742 -90.61794,133.00539 -109.87093,210.03696 -4.3989,9.34928 -10.61587,36.52774 7.78818,27.96224 -0.49405,-21.71298 -0.31223,-44.94193 7.69069,-66.03607 14.23439,-23.62899 44.47172,-26.49451 62.5641,-45.69539 7.05991,-9.21252 37.1262,-32.71938 12.92643,-31.75845 13.29302,-1.55732 37.98293,-33.1492 11.10827,-27.48161 -6.71444,-0.71475 17.27283,-12.01654 21.74388,-18.23709 7.55869,-7.58854 29.31496,-23.45311 26.42983,-27.57685 -8.35786,2.61455 -39.50193,-4.03654 -14.99146,-5.04294 18.20484,3.17384 33.42065,-6.39792 44.91634,-19.56218 9.16618,-6.63489 19.17681,-19.71882 0.43044,-17.05634 -4.16594,-0.46305 -8.33189,-0.9261 -12.49783,-1.38915 z"
         style="fill:#5555ff" />
    </g>
    <text
       xml:space="preserve"
       style="font-style:normal;font-variant:normal;font-weight:200;font-stretch:normal;font-size:21.16669999999999874px;line-height:1.25;font-family:'Hiragino Sans';-inkscape-font-specification:'Hiragino Sans Ultra-Light';fill:#ffffff;fill-opacity:1;stroke:none;stroke-width:0.43769;"
       x="0.88102347"
       y="31.367174"
       id="text248"><tspan
         sodipodi:role="line"
         id="tspan246"
         x="0.88102347"
         y="31.367174"
         style="font-style:normal;font-variant:normal;font-weight:200;font-stretch:normal;font-size:21.16669999999999874px;font-family:'Hiragino Sans';-inkscape-font-specification:'Hiragino Sans Ultra-Light';fill:#ffffff;fill-opacity:1;stroke-width:0.43769;">Feathers</tspan></text>
    <text
       xml:space="preserve"
       style="font-style:normal;font-variant:normal;font-weight:200;font-stretch:normal;font-size:21.1667px;line-height:1.25;font-family:'Hiragino Sans';-inkscape-font-specification:'Hiragino Sans Ultra-Light';fill:#5555ff;fill-opacity:1;stroke:none;stroke-width:0.264583"
       x="137.32755"
       y="31.430674"
       id="text252"><tspan
         sodipodi:role="line"
         id="tspan250"
         x="137.32755"
         y="31.430674"
         style="font-style:normal;font-variant:normal;font-weight:200;font-stretch:normal;font-size:21.1667px;font-family:'Hiragino Sans';-inkscape-font-specification:'Hiragino Sans Ultra-Light';fill:#5555ff;fill-opacity:1;stroke-width:0.264583">Cloud</tspan></text>
  </g>
</svg>
