<?xml version="1.0" encoding="UTF-8" standalone="no"?>
<svg
   xmlns:dc="http://purl.org/dc/elements/1.1/"
   xmlns:cc="http://creativecommons.org/ns#"
   xmlns:rdf="http://www.w3.org/1999/02/22-rdf-syntax-ns#"
   xmlns:svg="http://www.w3.org/2000/svg"
   xmlns="http://www.w3.org/2000/svg"
   xmlns:sodipodi="http://sodipodi.sourceforge.net/DTD/sodipodi-0.dtd"
   xmlns:inkscape="http://www.inkscape.org/namespaces/inkscape"
   width="600"
   height="650"
   viewBox="0 0 158.74999 171.97917"
   version="1.1"
   id="svg29"
   sodipodi:docname="feathers-cloud-text-logo-v5-white.svg"
   inkscape:version="1.0.2 (e86c8708, 2021-01-15)"
   inkscape:export-filename="/Users/daffl/Feathers/Design/feathers-cloud-logo-v5.png"
   inkscape:export-xdpi="96"
   inkscape:export-ydpi="96">
  <defs
     id="defs23">
    <inkscape:path-effect
       effect="fillet_chamfer"
       id="path-effect167"
       is_visible="true"
       lpeversion="1"
       satellites_param="F,0,0,1,0,10.054167,0,1 @ F,0,0,1,0,10.054167,0,1 @ F,0,0,1,0,10.054167,0,1 @ F,0,0,1,0,10.054167,0,1 @ F,0,0,1,0,10.054167,0,1 @ F,0,0,1,0,10.054167,0,1 @ F,0,0,1,0,10.054167,0,1 @ F,0,0,1,0,10.054167,0,1 @ F,0,0,1,0,10.054167,0,1 @ F,0,0,1,0,10.054167,0,1 @ F,0,0,1,0,10.054167,0,1 @ F,0,0,1,0,10.054167,0,1 @ F,0,0,1,0,10.054167,0,1 @ F,0,0,1,0,10.054167,0,1 @ F,0,0,1,0,10.054167,0,1 @ F,0,0,1,0,10.054167,0,1 | F,0,0,1,0,10.054167,0,1 @ F,0,0,1,0,10.054167,0,1 @ F,0,0,1,0,10.054167,0,1 @ F,0,0,1,0,10.054167,0,1 @ F,0,0,1,0,10.054167,0,1 @ F,0,0,1,0,10.054167,0,1 @ F,0,0,1,0,10.054167,0,1 @ F,0,0,1,0,10.054167,0,1 @ F,0,0,1,0,10.054167,0,1 @ F,0,0,1,0,10.054167,0,1 @ F,0,0,1,0,10.054167,0,1 @ F,0,0,1,0,10.054167,0,1 @ F,0,0,1,0,10.054167,0,1 @ F,0,0,1,0,10.054167,0,1 @ F,0,0,1,0,10.054167,0,1 @ F,0,0,1,0,10.054167,0,1 @ F,0,0,1,0,10.054167,0,1 @ F,0,0,1,0,10.054167,0,1 @ F,0,0,1,0,10.054167,0,1 @ F,0,0,1,0,10.054167,0,1 @ F,0,0,1,0,10.054167,0,1 @ F,0,0,1,0,10.054167,0,1"
       unit="px"
       method="auto"
       mode="F"
       radius="0"
       chamfer_steps="1"
       flexible="false"
       use_knot_distance="true"
       apply_no_radius="true"
       apply_with_radius="true"
       only_selected="false"
       hide_knots="false" />
    <clipPath
       id="clip-path">
      <rect
         class="cls-1"
         width="595.28003"
         height="595.28003"
         id="rect83"
         x="0"
         y="0" />
    </clipPath>
  </defs>
  <sodipodi:namedview
     id="base"
     pagecolor="#ffffff"
     bordercolor="#666666"
     borderopacity="1.0"
     inkscape:pageopacity="0.0"
     inkscape:pageshadow="2"
     inkscape:zoom="0.81467601"
     inkscape:cx="227.00607"
     inkscape:cy="420.29322"
     inkscape:document-units="mm"
     inkscape:current-layer="layer1"
     inkscape:document-rotation="0"
     showgrid="false"
     units="px"
     inkscape:pagecheckerboard="true"
     inkscape:window-width="1252"
     inkscape:window-height="747"
     inkscape:window-x="0"
     inkscape:window-y="25"
     inkscape:window-maximized="0" />
  <metadata
     id="metadata26">
    <rdf:RDF>
      <cc:Work
         rdf:about="">
        <dc:format>image/svg+xml</dc:format>
        <dc:type
           rdf:resource="http://purl.org/dc/dcmitype/StillImage" />
        <dc:title></dc:title>
      </cc:Work>
    </rdf:RDF>
  </metadata>
  <g
     inkscape:label="Layer 1"
     inkscape:groupmode="layer"
     id="layer1">
    <path
       id="path16"
       style="fill:#ffffff;stroke-width:0.46931"
       d="m 50.240764,26.521062 c -4.474013,1.770157 -8.415831,4.730101 -11.403634,8.564856 -3.394149,4.356288 -9.108133,10.147346 -13.449814,13.561817 -6.473,5.090627 -10.516746,12.833876 -11.044986,21.162035 -0.349807,5.51502 2.179432,14.473472 5.384899,18.974187 4.791715,6.727928 12.231391,11.060228 20.338618,11.850563 5.49665,0.53584 11.293866,-3.598695 12.933508,-7.006126 -2.490803,-0.06408 -2.490803,-0.06408 -2.490803,-0.06408 -12.95653,0.936902 -19.83835,-1.492826 -23.683228,-5.432633 -2.377434,-2.436148 -6.138874,-8.996036 -6.578284,-14.487942 -0.351173,-4.389307 1.684559,-12.58615 5.17436,-16.845565 0.376439,-0.459457 0.770214,-0.904799 1.180043,-1.334695 3.800679,-3.986785 11.519766,-5.648572 12.688154,-8.251372 3.264919,-7.284826 3.264919,-7.284826 3.264919,-7.284826 10.004872,-8.31056 17.155311,-10.122949 22.493738,-8.798247 2.439189,0.605281 4.779436,1.800766 5.352623,2.171779 l 4.240569,-4.250904 C 62.502002,24.610473 55.373205,24.490395 50.240764,26.521062 Z m 63.713076,9.955267 c 2.60086,10.858628 1.84646,14.920353 0.67696,18.600933 2.99361,6.119005 2.99361,6.119005 2.99361,6.119005 4.81521,0.722437 4.81521,0.722437 4.81521,0.722437 6.47144,3.105753 6.47144,3.105753 6.47144,3.105753 5.58984,6.187218 5.58984,6.187218 5.58984,6.187218 3.05689,13.952611 0.32796,22.077622 -3.7088,25.803748 -3.33433,3.077717 -11.56036,5.997727 -16.94826,4.970197 -1.25896,-0.2401 -2.49655,-0.60081 -3.68977,-1.07371 -5.10519,-2.02328 -12.901732,-10.805453 -16.76544,-7.739738 -0.106045,0.08414 -2.277752,4.41663 -6.668588,7.752108 -0.485295,0.36865 -4.767157,3.41634 -10.220277,4.15888 -0.673361,0.0917 -5.980415,0.60488 -11.038246,-1.5568 -0.448527,-0.1917 -1.941208,1.99815 -3.342823,4.91098 16.287741,3.08065 22.903655,1.11531 28.235643,-2.94064 4.395665,-3.3437 9.476184,-3.56568 14.247121,-0.79295 1.51855,0.88254 3.12117,1.60571 4.78252,2.15814 5.23456,1.74058 14.61418,1.02596 19.5295,-1.47854 1.57561,-0.80282 3.06713,-1.76819 4.4506,-2.88065 4.30079,-3.45833 8.867,-11.648548 9.60317,-17.119293 0.25035,-1.860489 0.3054,-3.743425 0.16416,-5.615852 -0.4152,-5.504567 -4.48885,-13.948485 -8.57263,-17.660906 -1.31986,-1.199831 -2.75707,-2.258479 -4.28838,-3.158884 -4.75559,-2.796263 -9.55952,-3.280877 -9.71335,-3.280877 1.61696,-11.281305 1.45905,-12.712801 1.19279,-14.12838 -1.0216,-5.431476 -5.41859,-7.445868 -7.796,-5.062179 z"
       sodipodi:nodetypes="ccscccccccccccccccccccccccccccccccsssccc"
       inkscape:original-d="m 60.059907,24.65948 c -11.81858,-0.02312 -22.282913,7.790652 -25.8408,19.295463 -14.753784,4.740609 -23.103934,20.635291 -18.809169,35.803602 4.294764,15.168313 19.664255,24.064695 34.620607,20.039499 l 2.96881,-6.16965 c -0.803849,-0.233844 -1.659389,-0.275603 -2.490803,-0.06408 -4.904076,1.74049 -10.426575,1.818505 -15.321029,-0.0078 -5.110952,-1.81466 -9.452574,-5.684715 -12.045776,-10.366241 -2.98541,-5.30261 -3.718455,-11.588782 -2.210202,-17.489887 1.717791,-7.097424 7.162558,-13.196649 13.940235,-15.810923 1.600397,-0.591175 3.639511,-0.943494 4.417817,-2.677356 0.70725,-2.572226 1.746475,-5.076661 3.264919,-7.284826 2.894166,-4.376391 7.468182,-7.644836 12.534635,-8.848555 4.710417,-1.130743 9.858512,-0.578336 14.226521,1.629875 0.384342,0.161139 0.739839,0.368663 1.085205,0.592212 l 4.240569,-4.250904 c -4.349265,-2.85666 -9.40976,-4.38035 -14.581539,-4.390429 z m 58.198573,7.500833 -4.30464,4.316016 c 1.73161,3.62368 2.95934,7.839479 2.46806,11.841654 -0.16231,2.353932 -1.08501,4.537102 -1.7911,6.759279 -0.98696,2.421371 0.62226,5.270995 2.99361,6.119005 1.56174,0.451583 3.25,0.241276 4.81521,0.722437 2.30592,0.597477 4.55134,1.693318 6.47144,3.105753 2.2153,1.629834 4.15827,3.763002 5.58984,6.187218 3.1396,5.188201 3.70037,11.757575 1.70791,17.460949 -1.91377,5.824003 -6.66892,10.586493 -12.46126,12.570816 -7.55739,2.79396 -16.62117,0.051 -21.62922,-6.187743 -1.67667,-3.030021 -6.257211,-4.061576 -8.91781,-1.726509 -1.814666,3.239402 -4.294585,6.144627 -7.376295,8.239292 -3.095966,2.1293 -6.88626,3.3519 -10.547675,3.64735 -3.645318,0.26871 -7.325006,-0.48679 -10.620026,-2.0526 l -2.537828,5.27411 c 12.547224,5.98406 27.495918,1.5701 34.97616,-10.327565 5.315474,6.886795 13.637054,10.625545 22.202214,9.975145 8.56516,-0.65041 16.25314,-5.60488 20.51195,-13.218662 4.25881,-7.613771 4.53116,-16.890579 0.72656,-24.750953 -3.80461,-7.860376 -11.18832,-13.275749 -19.69999,-14.448417 h -0.27854 c 2.99226,-7.694895 1.8102,-16.368662 -2.29857,-23.506575 z"
       inkscape:path-effect="#path-effect167" />
    <g
       class="cls-2"
       clip-path="url(#clip-path)"
       id="g92"
       transform="matrix(0.32428358,0,0,0.40700042,-7.4227985,-50.70645)">
      <path
         id="path90"
         d="m 351.61,191.69 c 24.90836,-1.25499 56.52217,-10.23269 65.29213,-36.31526 -6.86313,-21.8351 -37.14447,-15.11962 -54.63342,-11.77648 -23.8069,6.51678 -44.63986,21.43185 -60.91871,39.71174 5.39185,-11.51886 1.38522,-15.54871 -7.88948,-6.16701 -13.41337,6.5167 -24.77254,30.39327 -29.10035,34.92031 -11.41194,-16.79514 -13.56793,26.15439 -28.395,25.06694 -12.56239,2.03375 -4.96647,37.46644 -14.3549,22.64975 -11.9765,12.68486 0.25808,36.88597 -16.21681,38.67687 -6.14016,17.05734 -7.71721,35.38797 -6.70346,53.40314 23.49574,-48.4976 45.94715,-100.60083 87.91083,-136.2381 6.80352,-5.89595 20.51478,-12.38321 6.77123,-2.09503 -60.90466,53.98742 -90.61794,133.00539 -109.87093,210.03696 -4.3989,9.34928 -10.61587,36.52774 7.78818,27.96224 -0.49405,-21.71298 -0.31223,-44.94193 7.69069,-66.03607 14.23439,-23.62899 44.47172,-26.49451 62.5641,-45.69539 7.05991,-9.21252 37.1262,-32.71938 12.92643,-31.75845 13.29302,-1.55732 37.98293,-33.1492 11.10827,-27.48161 -6.71444,-0.71475 17.27283,-12.01654 21.74388,-18.23709 7.55869,-7.58854 29.31496,-23.45311 26.42983,-27.57685 -8.35786,2.61455 -39.50193,-4.03654 -14.99146,-5.04294 18.20484,3.17384 33.42065,-6.39792 44.91634,-19.56218 9.16618,-6.63489 19.17681,-19.71882 0.43044,-17.05634 -4.16594,-0.46305 -8.33189,-0.9261 -12.49783,-1.38915 z"
         style="fill:#5555ff" />
    </g>
    <text
       xml:space="preserve"
       style="font-style:normal;font-variant:normal;font-weight:900;font-stretch:normal;font-size:21.1667px;line-height:1.25;font-family:Avenir;-inkscape-font-specification:'Avenir Heavy';fill:#ffffff;fill-opacity:1;stroke:none;stroke-width:0.43769"
       x="5.5430465"
       y="154.84618"
       id="text248"><tspan
         sodipodi:role="line"
         id="tspan246"
         x="5.5430465"
         y="154.84618"
         style="font-style:normal;font-variant:normal;font-weight:300;font-stretch:normal;font-size:21.1667px;font-family:Avenir;-inkscape-font-specification:'Avenir Light';fill:#ffffff;stroke-width:0.43769">Feathers</tspan></text>
    <text
       xml:space="preserve"
       style="font-style:normal;font-variant:normal;font-weight:normal;font-stretch:normal;font-size:21.1667px;line-height:1.25;font-family:Avenir;-inkscape-font-specification:Avenir;fill:#5555ff;fill-opacity:1;stroke:none;stroke-width:0.264583"
       x="89.734734"
       y="154.78267"
       id="text252"><tspan
         sodipodi:role="line"
         id="tspan250"
         x="89.734734"
         y="154.78267"
         style="font-style:normal;font-variant:normal;font-weight:300;font-stretch:normal;font-size:21.1667px;font-family:Avenir;-inkscape-font-specification:'Avenir Light';fill:#5555ff;fill-opacity:1;stroke-width:0.264583">Cloud</tspan></text>
  </g>
</svg>
